<?xml version="1.0" encoding="UTF-8"?>
<svg enable-background="new 0 0 312.281 300.25" viewBox="0 0 312.281 300.25" xmlns="http://www.w3.org/2000/svg">
 <path d="m251.98 156.13c-0.563-12.399-2.423-24.913-7.197-36.455-4.51-10.901-11.374-21.29-19.618-29.722-8.449-8.643-17.834-15.792-28.902-20.723-11.152-4.972-23.043-8.229-35.264-8.929-22.998-1.322-46.442 6.375-64.5 20.607-17.188 13.549-29.502 33.063-34.334 54.404-5.254 23.208-1.352 49.007 11.054 69.399 3.116 5.121 6.339 10.19 10.442 14.586 4.047 4.335 8.36 8.542 13.02 12.216 9.294 7.327 19.907 12.869 31.227 16.325 22.448 6.854 46.991 5.2 68.3-4.646 19.686-9.101 36.863-25.545 46.146-45.224 2.955-6.265 5.043-12.938 6.741-19.64 1.865-7.352 2.542-14.637 2.885-22.198" fill="#848484"/>
 <path d="m251.735,155.887c0,23.233-8.585,46.131-23.95,63.581-7.752,8.806-17.631,16.915-28.209,22.027-11.043,5.34-22.752,8.889-34.971,10.093-23.866,2.355-48.578-4.977-67.474-19.74-17.132-13.39-30.186-33.365-34.717-54.689-2.506-11.793-3.356-24.914-1.17-36.822 2.149-11.71 6.143-23.656 12.466-33.774 6.227-9.963 13.92-19.254 23.395-26.285 4.764-3.534 9.774-6.808 14.95-9.707 5.317-2.979 11.15-4.84 16.973-6.57 23.094-6.86 49.12-4.695 70.478,6.58 5.162,2.727 10.322,5.724 14.955,9.295 4.652,3.584 8.969,7.977 12.91,12.32 7.904,8.709 13.82,18.538 17.948,29.526 3.522,9.386 6.272,19.846 6.413,29.942 .018,1.295.02,2.592-.004,3.888-.014.707-5.258.338-6.117.338h-17.9-71.792l95.816-.003" fill="#848484"/>
 <path d="m251.74 155.89c0 23.233-8.585 46.131-23.95 63.581-7.752 8.806-17.631 16.915-28.209 22.027-11.043 5.34-22.752 8.889-34.971 10.093-23.866 2.355-48.578-4.977-67.474-19.74-17.132-13.39-30.186-33.365-34.717-54.689-2.506-11.793-3.356-24.914-1.17-36.822 2.149-11.71 6.143-23.656 12.466-33.774 6.227-9.963 13.92-19.254 23.395-26.285 4.764-3.534 9.774-6.808 14.95-9.707 5.317-2.979 11.15-4.84 16.973-6.57 23.094-6.86 49.12-4.695 70.478 6.58 5.162 2.727 10.322 5.724 14.955 9.295 4.652 3.584 8.969 7.977 12.91 12.32 7.904 8.709 13.82 18.538 17.948 29.526s6.416 22.395 6.416 34.165" fill="none" stroke="#010101" stroke-linecap="square" stroke-miterlimit="10" stroke-width=".2402"/>
 <path d="m227.955,156.127c-.639-12.177-3.07-23.744-9.031-34.48-5.496-9.899-13.2-18.513-22.561-24.901-19.507-13.312-45.413-16.558-67.324-7.364-10.78,4.523-21.159,11.629-28.556,20.748-7.316,9.021-12.456,19.986-14.893,31.307-2.599,12.066-1.855,24.141 1.742,35.928 1.744,5.719 4.017,11.264 7.243,16.311 1.52,2.381 3.095,4.752 4.882,6.94 1.808,2.214 3.604,4.765 5.766,6.638 4.499,3.901 9.014,7.753 14.154,10.799 5.167,3.061 10.716,5.486 16.479,7.18 11.707,3.438 24.627,3.867 36.476.859 6.041-1.533 11.701-3.393 17.178-6.415 5.098-2.813 9.568-5.847 13.93-9.714 8.729-7.738 15.65-17.589 19.752-28.529 3.026-8.079 4.309-16.728 4.763-25.307" fill="#fff" stroke="#fff" stroke-linecap="square" stroke-miterlimit="10" stroke-width=".2402"/>
 <path d="m227.714,156.127c-.771,11.95-2.854,23.488-8.541,34.152-5.238,9.83-13.354,18.406-22.389,24.883-4.719,3.381-10.012,5.847-15.367,8.043-5.562,2.279-10.985,3.275-16.91,4.092-5.971.824-12.074.83-18.051.04-5.789-.765-11.969-2.088-17.337-4.426-10.619-4.623-20.136-11.142-27.6-20.017-7.498-8.914-13.163-19.557-15.629-30.994-4.899-22.721 1.246-47.457 17.118-64.614 15.167-16.396 37.975-25.331 60.248-22.712 5.861.689 11.525,1.573 16.998,3.848 5.229,2.173 10.408,4.536 15.203,7.566 9.653,6.098 17.182,15.08 23.01,24.795 6.499,10.824 8.449,22.939 9.247,35.344h-71.789 71.789" fill="#fff"/>
 <path d="m227.714,156.127c-.771,11.95-2.854,23.488-8.541,34.152-5.238,9.83-13.354,18.406-22.389,24.883-4.719,3.381-10.012,5.847-15.367,8.043-5.562,2.279-10.985,3.275-16.91,4.092-5.971.824-12.074.83-18.051.04-5.789-.765-11.969-2.088-17.337-4.426-10.619-4.623-20.136-11.142-27.6-20.017-7.498-8.914-13.163-19.557-15.629-30.994-4.899-22.721 1.246-47.457 17.118-64.614 15.167-16.396 37.975-25.331 60.248-22.712 5.861.689 11.525,1.573 16.998,3.848 5.229,2.173 10.408,4.536 15.203,7.566 9.653,6.098 17.182,15.08 23.01,24.795 6.499,10.824 8.449,22.939 9.247,35.344" fill="none" stroke="#010101" stroke-linecap="square" stroke-miterlimit="10" stroke-width=".2402"/>
 <path d="m156.14,154.207c-.078-51.395-.161-102.79-.24-154.186 4.71,25.91 9.424,51.82 14.133,77.731l7.053,38.781c.562,3.091 1.125,6.181 1.686,9.274 .283,1.544.562,3.091.844,4.635 .344,1.885.02,1.949-1.238,3.209l-13.586,13.585-8.89,8.891c.079-.641.158-1.279.238-1.92" fill="#010101"/>
 <path d="m156.14,154.207c-.078-51.395-.161-102.79-.24-154.186 4.71,25.91 9.424,51.82 14.133,77.731l7.053,38.781c.562,3.091 1.125,6.181 1.686,9.274 .283,1.544.562,3.091.844,4.635 .344,1.885.02,1.949-1.238,3.209l-13.586,13.585-8.89,8.891" fill="none" stroke="#010101" stroke-linecap="square" stroke-miterlimit="10" stroke-width=".2402"/>
 <path d="m156.14,154.207 156.117,1.92-77.879,13.992-38.854,6.98-9.291,1.668-4.645.836c-1.891.34-1.965.01-3.236-1.248l-13.701-13.564-5.863-5.809c-.845-.832-1.881-1.637-2.563-2.609-.446-.633-.173-1.466-.085-2.166" fill="#010101"/>
 <path d="m156.14,154.207 156.117,1.92-77.879,13.992-38.854,6.98-9.291,1.668-4.645.836c-1.891.34-1.965.01-3.236-1.248l-13.701-13.564c-2.917-2.891-5.835-5.773-8.751-8.664" fill="none" stroke="#010101" stroke-linecap="square" stroke-miterlimit="10" stroke-width=".2402"/>
 <path d="m156.14,154.207-156.119,1.92 77.769-14.164 38.746-7.058 9.149-1.667c1.525-.276 3.05-.555 4.575-.832 1.651-.302 1.675-.248 2.763.846l13.668,13.667 9.209,9.208c.081-.641.16-1.279.24-1.92" fill="#010101"/>
 <path d="m156.14,154.207-156.119,1.92 77.769-14.164 38.746-7.058 9.149-1.667c1.525-.276 3.05-.555 4.575-.832 1.651-.302 1.675-.248 2.763.846l13.668,13.667 9.209,9.208" fill="none" stroke="#010101" stroke-linecap="square" stroke-miterlimit="10" stroke-width=".2402"/>
 <path d="m156.14 154.21-13.398 14.193-6.431 6.812-3.092 3.274c-1.348 1.428-1.333 1.438-0.945 3.375l7.714 38.644c5.15 25.8 10.299 51.599 15.45 77.396 0.154 0.776 0.309 1.552 0.463 2.324v-127.86c-1e-3 -5.984-0.504-12.218 0.239-18.163" fill="#010101"/>
 <path d="m156.14,154.207-13.398,14.193-6.431,6.812-3.092,3.274c-1.348,1.428-1.333,1.438-.945,3.375l7.714,38.644c5.15,25.8 10.299,51.599 15.45,77.396 .154.776.309,1.552.463,2.324v-144.1" fill="none" stroke="#010101" stroke-linecap="square" stroke-miterlimit="10" stroke-width=".2402"/>
 <path d="m179.677,130.91 24.261-22.812-18.185,8.908-3.924,1.922c-1.285.629-1.912.671-1.912,2.111v11.072l-.24-1.201" fill="#fff"/>
 <path d="m179.677,130.91 24.261-22.812-18.185,8.908-3.924,1.922c-1.285.629-1.912.671-1.912,2.111v11.072" fill="none" stroke="#010101" stroke-linecap="square" stroke-miterlimit="10" stroke-width=".2402"/>
 <path d="m179.677,130.91 24.261-22.812-10.067,20.126c-.471.941-1.123,3.253-2.013,3.818-.751.478-2.687.068-3.509.068h-5.434-2.604c-.675,0-.543-.747-.634-1.2" fill="#010101"/>
 <path d="m179.677,130.91 24.261-22.812-9.092,18.178-1.964,3.925c-.649,1.297-.697,1.91-2.155,1.91h-10.81" fill="none" stroke="#010101" stroke-linecap="square" stroke-miterlimit="10" stroke-width=".2402"/>
 <path d="m131.642,132.11-23.779-24.013 8.96,17.915c.667,1.335 1.335,2.671 2.003,4.006 .576,1.152.667,2.092 2.03,2.092h10.786" fill="#fff"/>
 <path d="m131.64 132.11-23.779-24.013 12.009 24.013" fill="none" stroke="#010101" stroke-linecap="square" stroke-miterlimit="10" stroke-width=".2402"/>
 <path d="m131.642,132.11-23.779-24.013 18.184,8.908 3.925,1.922c1.287.631 1.915.666 1.887,2.111-.073,3.691-.145,7.382-.217,11.072" fill="#010101"/>
 <path d="m131.64 132.11-23.779-24.013 24.019 11.766" fill="none" stroke="#010101" stroke-linecap="square" stroke-miterlimit="10" stroke-width=".2402"/>
 <path d="m131.642,179.902-23.779,24.018 12.768-6.254 6.383-3.128c1.158-.567 5-1.66 4.93-3.179-.062-1.355.656-11.336-.302-11.457" fill="#fff"/>
 <path d="m131.64 179.9-23.779 24.018 18.184-8.906 3.925-1.923c1.283-0.629 1.91-0.672 1.91-2.11v-11.076" fill="none" stroke="#010101" stroke-linecap="square" stroke-miterlimit="10" stroke-width=".2402"/>
 <path d="m131.642,179.902-23.779,24.018 8.96-17.918c.667-1.336 1.335-2.671 2.003-4.006 .576-1.152.667-2.094 2.03-2.094h10.786" fill="#010101"/>
 <path d="m131.64 179.9-23.779 24.018 12.009-24.018" fill="none" stroke="#010101" stroke-linecap="square" stroke-miterlimit="10" stroke-width=".2402"/>
 <path d="m179.68 179.9 24.261 24.018-9.092-18.182-1.964-3.926c-0.641-1.278-0.688-1.91-2.133-1.91h-11.072" fill="#fff"/>
 <path d="m179.68 179.9 24.261 24.018c-4.005-8.006-8.009-16.01-12.011-24.018" fill="none" stroke="#010101" stroke-linecap="square" stroke-miterlimit="10" stroke-width=".2402"/>
 <path d="m179.677,179.902 24.261,24.018-18.185-8.906-3.924-1.923c-1.281-.627-1.906-.676-1.937-2.11-.07-3.694-.142-7.385-.215-11.079" fill="#010101"/>
 <path d="m179.68 179.9 24.261 24.018-24.021-11.766" fill="none" stroke="#010101" stroke-linecap="square" stroke-miterlimit="10" stroke-width=".2402"/>
 <path d="m155.9,155.407v144.819c5.117-25.641 10.238-51.283 15.354-76.924 2.562-12.828 5.125-25.656 7.685-38.486 .294-1.479.59-2.963.886-4.442 .192-.962-1.451-2.048-2.078-2.687l-6.981-7.121-13.763-14.037c-.369-.373-.736-.749-1.103-1.122" fill="#fff"/>
 <path d="m155.9,155.407 156.357.72-77.705-14.101-38.82-7.046-8.949-1.624-4.478-.812c-1.599-.291-2.167-.641-3.313.464-4.56,4.426-9.121,8.848-13.682,13.272-3.137,3.043-6.271,6.087-9.41,9.127" fill="#fff"/>
 <path d="m156.38,155.407-156.359.72c25.923,4.676 51.846,9.35 77.769,14.021l38.746,6.986 9.149,1.651 4.575.823c1.637.295 1.658.257 2.736-.821 4.525-4.528 9.054-9.054 13.582-13.58l9.802-9.8" fill="#fff"/>
 <path d="m155.9 155.41v-155.39c-4.71 25.91-9.423 51.82-14.134 77.731-2.35 12.926-4.702 25.853-7.052 38.781l-1.686 9.274-0.844 4.635c-0.345 1.901-5e-3 1.957 1.283 3.207l13.82 13.406 8.613 8.352" fill="#fff"/>
</svg>
