<?xml version="1.0" encoding="UTF-8"?>
<svg width="74.631" height="65.649" version="1.1" viewBox="0 0 74.631424 65.649" xml:space="preserve" xmlns="http://www.w3.org/2000/svg" xmlns:xlink="http://www.w3.org/1999/xlink"><defs><radialGradient id="z" cx="59.425" cy="-59.35" r="59.388" gradientTransform="matrix(1 0 0 -1 0 -118.7)" gradientUnits="userSpaceOnUse"><stop stop-color="#8CA5BB" offset=".1412"/><stop stop-color="#7082AD" stop-opacity=".9725" offset=".5569"/><stop stop-color="#5560A0" stop-opacity=".949" offset="1"/></radialGradient><radialGradient id="aa" cx="59.35" cy="-28.575" r="46.578" gradientTransform="matrix(1 0 0 -1 0 -57.15)" gradientUnits="userSpaceOnUse"><stop stop-color="#CCEFE7" stop-opacity="0" offset="0"/><stop stop-color="#C2E8E0" stop-opacity=".0784" offset=".0941"/><stop stop-color="#A6D6CF" stop-opacity=".298" offset=".2549"/><stop stop-color="#7BB8B2" stop-opacity=".6471" offset=".4667"/><stop stop-color="#519A96" offset=".651"/></radialGradient><linearGradient id="y" x1="16165" x2="16221" y1="-53.855" y2="-53.855" gradientTransform="matrix(1.7929e-5 1 -1 -.001 .8545 -16221)" gradientUnits="userSpaceOnUse"><stop stop-color="#E1B7B1" offset=".1294"/><stop stop-color="#fff" offset=".9255"/></linearGradient></defs>
<symbol transform="translate(-48.734 -65.327)" viewBox="0 -118.7 118.85 118.7">
		<path d="m118.85-59.35c0-16.367-5.8-30.35-17.4-41.95s-25.6-17.4-42-17.4c-16.434 0-30.45 5.8-42.05 17.4s-17.4 25.583-17.4 41.95 5.8 30.35 17.4 41.95 25.617 17.4 42.05 17.4c16.4 0 30.4-5.8 42-17.4s17.4-25.583 17.4-41.95z" fill="url(#z)" fill-rule="evenodd"/>
</symbol>
<symbol transform="translate(-48.734 -65.327)" viewBox="0 -57.15 118.7 57.15">
		<path d="m95.5-30.35c10.733 7.7 18.3 17.733 22.7 30.1l0.5 0.25c-0.567-15.9-6.6-29.4-18.1-40.5s-25.267-16.65-41.3-16.65c-15.7 0-29.267 5.367-40.7 16.1-11.4 10.7-17.6 23.817-18.6 39.35 4.6-12 12.183-21.683 22.75-29.05 10.833-7.567 22.867-11.35 36.1-11.35 13.5 0 25.717 3.917 36.65 11.75z" fill="url(#aa)" fill-rule="evenodd"/>
</symbol>
<symbol transform="translate(-48.734 -65.327)" viewBox="0 -61.294 110 61.294">
		<path d="m106.5-34.4c2.333-5.633 3.5-10.934 3.5-15.9 0-4.967-1.433-8.083-4.3-9.35-2.367-1.067-6.3-1.05-11.8 0.05-7.267 1.767-13.1 3.117-17.5 4.05-8 1.7-15.133 2.55-21.4 2.55-6.333 0-13.467-0.917-21.4-2.75-8.333-2.2-14.167-3.683-17.5-4.45-5.533-1.267-9.467-1.433-11.8-0.5-2.867 1.2-4.3 4.267-4.3 9.2 0 5.467 1.167 11.117 3.5 16.95 2.467 6.167 5.95 11.75 10.45 16.75 10.7 11.867 24.383 17.8 41.05 17.8 16.467 0 30.133-6 41-18 4.467-4.9 7.967-10.367 10.5-16.4z" fill="#fff" fill-rule="evenodd"/>
</symbol>
<symbol id="o" transform="translate(-48.734 -65.327)" viewBox="-0.025 -38.15 4.275 38.15">
		<path d="m2.05-0.5 0.2 0.5c0.333-1.4 0.467-2.6 0.4-3.6-0.2-6.233-0.183-12.566 0.05-19 0.1-2.566 0.617-7.75 1.55-15.55-0.833 3.633-1.283 5.883-1.35 6.75-0.033 0.533-0.2 1.733-0.5 3.6-0.3 1.767-0.45 2.683-0.45 2.75-0.467 1.7-0.733 2.75-0.8 3.15-0.033 0.233-0.017 0.75 0.05 1.55l0.15 1.1c0.133 1.467 0.183 2.45 0.15 2.95-0.333 2.466-0.617 4.133-0.85 5-0.2 0.733-0.417 2.4-0.65 5-0.033 0.4-0.033 0.983 0 1.75 0.033 0.867 0.1 1.383 0.2 1.55 0.167 0.3 0.783 1.133 1.85 2.5z" fill="#fff" fill-rule="evenodd"/>
</symbol>
<symbol id="p" transform="translate(-48.734 -65.327)" viewBox="-0.03 -32.57 46.88 32.57">
		<path d="m45.8-26.05c0.1-1.133 0.45-2.184 1.05-3.15-0.3 0.034-0.6 0.034-0.9 0-0.434 0.9-0.7 1.684-0.8 2.35-0.533-0.066-1.233-0.25-2.1-0.55-1.167-0.467-2.216-0.75-3.15-0.85-2.066-0.267-3.767-0.05-5.1 0.65-0.633 0.3-1.183 0.717-1.65 1.25l-0.8 0.1c-1.2 0.167-2.4 0.25-3.6 0.25l-1.15-0.05-0.1-1.1c-0.067-0.967-0.2-1.667-0.4-2.1-0.7-1.4-2-2.383-3.9-2.95-1.9-0.566-3.534-0.483-4.9 0.25-1.3 0.733-1.85 1.75-1.65 3.05 0.033 0.267 0.017 0.45-0.05 0.55-0.1 0.2-0.65 0.3-1.65 0.3l-1.85-0.15c-0.8-0.167-1.783-0.533-2.95-1.1-1.867-0.934-3.467-1.417-4.8-1.45h-0.85c-1.667 0-2.85 0.35-3.55 1.05-0.767 0.767-1.083 1.967-0.95 3.6 0.267 2.434 1.483 3.967 3.65 4.6l-0.1 0.35c-0.367 1.066-0.433 2.017-0.2 2.85 0.233 0.767 0.717 1.517 1.45 2.25 0.633 0.633 1.317 1.133 2.05 1.5 0.6 0.333 1.667 0.533 3.2 0.6 0.9 0 1.5 0.067 1.8 0.2 0 0.3-0.067 0.583-0.2 0.85h-0.25c-0.7 0-1.267 0.2-1.7 0.6-0.533 0.5-0.767 1.35-0.7 2.55 0.133 2.433 1.933 3.783 5.4 4.05l0.05 0.65c0.066 1.433 0.267 2.566 0.6 3.4l0.1-0.35 0.1 0.7c0.233 0.433 0.517 0.85 0.85 1.25l1.2 0.05c-0.8-0.7-1.35-1.5-1.65-2.4-0.2-0.6-0.333-1.5-0.4-2.7l-0.1-1.35c-1.5-0.066-2.633-0.267-3.4-0.6-1.233-0.533-1.883-1.45-1.95-2.75-0.033-0.967 0.117-1.617 0.45-1.95 0.3-0.267 0.733-0.4 1.3-0.4 0.333 0 0.55-0.067 0.65-0.2 0.167-0.133 0.3-0.433 0.4-0.9 0.066-0.467 0.05-0.767-0.05-0.9-0.3-0.367-1.133-0.55-2.5-0.55-1.4-0.066-2.333-0.233-2.8-0.5-0.667-0.333-1.283-0.8-1.85-1.4-0.633-0.633-1.05-1.283-1.25-1.95-0.2-0.567-0.15-1.367 0.15-2.4 0.167-0.433 0.25-0.783 0.25-1.05-2.267-0.467-3.517-1.867-3.75-4.2-0.133-1.333 0.1-2.333 0.7-3 0.6-0.6 1.867-0.867 3.8-0.8 1.2 0.033 2.7 0.483 4.5 1.35 1.333 0.667 2.383 1.066 3.15 1.2 2.466 0.4 3.917 0.233 4.35-0.5 0.167-0.3 0.217-0.65 0.15-1.05-0.167-1 0.25-1.767 1.25-2.3 1.2-0.633 2.617-0.7 4.25-0.2 1.733 0.533 2.867 1.383 3.4 2.55 0.167 0.3 0.283 0.917 0.35 1.85 0.066 0.967 0.2 1.533 0.4 1.7 0.033 0 0.367 0.05 1 0.15 1.033 0.033 2.483-0.05 4.35-0.25 0.767-0.067 1.2-0.183 1.3-0.35 0.333-0.433 0.8-0.8 1.4-1.1 1.267-0.6 2.817-0.783 4.65-0.55 0.833 0.1 1.833 0.35 3 0.75 1.167 0.467 2.167 0.7 3 0.7z" fill="#fff" fill-rule="evenodd"/>
</symbol>
<symbol transform="translate(-48.734 -65.327)" viewBox="0 -55.8 110 55.8">
		<path d="m96-18c4.467-4.9 7.967-10.367 10.5-16.4 2.333-5.633 3.5-10.934 3.5-15.9 0-1.767-0.167-3.25-0.5-4.45-1.833 11.067-7.217 20.9-16.15 29.5-10.567 10.133-23.35 15.2-38.35 15.2-15.233 0-28.067-5.05-38.5-15.15-9-8.733-14.35-18.933-16.05-30.6-0.3 1.2-0.45 2.633-0.45 4.3 0 5.467 1.167 11.117 3.5 16.95 2.467 6.167 5.95 11.75 10.45 16.75 10.7 11.867 24.383 17.8 41.05 17.8 16.467 0 30.133-6 41-18z" fill="url(#y)" fill-rule="evenodd"/>
</symbol>
<symbol id="q" transform="translate(-48.734 -65.327)" viewBox="0 -43.798 64.05 43.798">
		<path d="m63-10.2c0-1.933-0.017-5.867-0.05-11.8 0.033-5.467 0.2-9.4 0.5-11.8l0.6-5.05c-1.433 1.733-3.55 2.934-6.35 3.6-2.5 0.533-5.534 0.5-9.1-0.1v0.15l-0.1-0.2c-2.767-0.5-5.933-1.35-9.5-2.55-3.733-1.333-6.25-2.233-7.55-2.7-2.5-0.9-5.184-1.617-8.05-2.15l-0.2 0.35-0.05-0.4c-5.833-1.066-10.433-1.233-13.8-0.5-2.067 0.467-3.783 1.033-5.15 1.7-1.667 0.833-3.067 1.883-4.2 3.15l0.7 17.5c0.267 5.233 0.4 12.233 0.4 21l3.1-1.65c1.167-1.167 3.117-2.167 5.85-3l0.3-0.85 0.05 0.75c1.9-0.567 4-0.917 6.3-1.05 1.667-0.1 3.466-0.1 5.4 0l0.4-1.9c0.033 0.434 0.15 1.067 0.35 1.9 4.033 0.233 8.316 0.733 12.85 1.5 4.3 0.767 7.65 1.583 10.05 2.45 1.9 0.667 3.8 1.033 5.7 1.1 2 0.067 3.833-0.2 5.5-0.8l0.6-2.9 0.1 2.6c1.7-0.8 3.1-1.933 4.2-3.4 0.367-0.467 0.683-0.95 0.95-1.45 0.133-1.033 0.2-2.2 0.2-3.5z" fill="#c9bf99" fill-rule="evenodd"/>
</symbol>
<g transform="translate(-48.734 -65.327)">
		<linearGradient id="w" x1="-129.7" x2="-71.674" y1="86.053" y2="86.053" gradientTransform="matrix(1.7234e-5 -1 1 -.001 7.2333e-5 .00044493)" gradientUnits="userSpaceOnUse">
		<stop stop-color="#26313D" offset="0"/>
		<stop stop-color="#3E4C5E" offset=".2196"/>
		<stop stop-color="#7A90B1" offset=".702"/>
		<stop stop-color="#A2BCE7" offset="1"/>
	</linearGradient>
	<path d="m120.85 80.35v0.05l0.45 2.25v0.1l0.101 0.95c0.166 1.033 0.216 1.95 0.149 2.75l0.25 21.7 0.55 4.75v0.1l0.051 0.2 0.75 7.55v0.3c0.1 1.4 0.116 2.384 0.05 2.95-0.167 2.867-1.351 4.816-3.55 5.85-1.233 0.566-3.017 0.851-5.351 0.851l-2.85 0.1-0.3 0.05c-1.2 0-2.25-0.416-3.15-1.25-0.667-0.666-1.1-1.467-1.3-2.399-0.167-0.567-0.25-1.101-0.25-1.601 0.033-0.467 0.017-1.684-0.05-3.649l-1.4 0.25-0.6 0.05-2.051 0.65c-1.433 0.467-3.449 1.316-6.05 2.55-2.7 1.3-4.916 2.267-6.649 2.899-2.834 1-5.867 1.684-9.101 2.051-0.833 0.1-1.6 0-2.3-0.301-0.5 0.233-1.083 0.384-1.75 0.45l-1.1 0.05c-1.6 0.233-2.8 0.233-3.6 0-0.4 0.101-0.816 0.15-1.25 0.15-8.233-0.3-14.033-1.533-17.4-3.7l-0.3-0.149c-1.167-0.634-2.117-1.584-2.85-2.851-0.833-1.5-1.2-3.217-1.1-5.149v-0.2c-0.066-1.467-0.05-5.367 0.05-11.7 0-1.2 0.417-12.217 1.25-33.05-0.034-0.967 0.267-1.9 0.9-2.8 0.5-1.133 1.283-1.95 2.35-2.45l0.3-0.3c2.1-1.966 4.7-2.95 7.8-2.95l1.25 0.1c1.567 0.2 2.717 1.017 3.45 2.45l0.35 0.65c0.433 0.933 0.55 1.917 0.35 2.95l-0.3 2.101c2.067 0.533 4.5 0.899 7.3 1.1 0.267-0.033 0.667-0.017 1.2 0.05h0.65l0.9 0.149 1-0.15 3.2-0.1c3.967-0.233 7.617-0.9 10.95-2 0.2-0.1 0.417-0.15 0.65-0.15l2.35-0.95c0.267-0.167 0.534-0.267 0.801-0.3l0.399-0.2 1.75-0.7c2.066-0.8 3.917-1.267 5.55-1.4h0.051l0.05-0.05c1.434-0.1 2.883-0.05 4.35 0.15 0.533 0.133 0.95 0.267 1.25 0.4 0.367 0 0.851 0.067 1.45 0.2l1.4 0.5c0.366 0.133 0.733 0.333 1.1 0.6 0.333 0.101 0.717 0.25 1.15 0.45 3.465 2 5.699 5.016 6.699 9.05zm-13.7 1.55v-0.15l-0.101-0.5c-0.1-0.4-0.116-0.867-0.05-1.4-1.167-0.3-2.05-0.916-2.65-1.85h-0.05c-0.767 0.033-1.767 0.283-3 0.75-0.733 1.167-1.783 1.85-3.149 2.05-0.4 0.067-0.801 0.067-1.2 0l-0.601 0.35c-0.767 0.367-1.55 0.5-2.35 0.4l-0.25 0.05c-3.767 1.134-7.85 1.851-12.25 2.15h-0.3c-0.233 1-0.767 1.816-1.6 2.45-0.833 0.633-1.767 0.95-2.8 0.95-0.933 0-1.767-0.25-2.5-0.75s-1.283-1.184-1.65-2.051l-0.95-0.7c-1.8-0.2-3.15-0.383-4.05-0.55-0.566 0.567-1.267 0.95-2.1 1.15-0.933 0.2-1.85 0.1-2.75-0.3-0.9-0.367-1.6-0.967-2.1-1.8l-0.55-1.1c-0.533-0.233-0.933-0.467-1.2-0.7-0.667 17.066-1 25.983-1 26.75l-0.1 10.95c0.1 0.366 0.117 0.8 0.05 1.3v0.051c0.467 0.366 1.317 0.717 2.55 1.05 2.033 0.6 4.7 1 8 1.2v-0.05l0.6-1.05c0.4-0.8 1-1.417 1.8-1.85 0.8-0.434 1.65-0.634 2.55-0.601 0.6-1.633 1.767-2.583 3.5-2.85 0.967-0.133 1.883 0.017 2.75 0.45 0.867 0.466 1.534 1.133 2 2l0.1 0.25 0.051 0.051 1.05 2.7 0.05 0.2c1.7-0.367 3.383-0.884 5.05-1.551 1.033-0.399 2.517-1.066 4.45-2 2.833-1.3 4.783-2.149 5.85-2.55 0.066-0.7 0.167-1.35 0.3-1.95 0.2-1.066 0.7-1.934 1.5-2.6 0.834-0.7 1.783-1.05 2.851-1.05 1.066-0.034 2.017 0.283 2.85 0.95 0.833 0.666 1.366 1.516 1.6 2.55l0.051 0.2c1.6 0 3 0.133 4.199 0.399 0.634 0.134 1.25 0.417 1.851 0.851l-0.9-11.15 0.05-17.05-0.05-0.55-0.6 0.1c-1.134 0.066-2.15-0.217-3.05-0.85-0.9-0.7-1.467-1.6-1.7-2.7l-0.052-0.049 1.649-0.3-1.649 0.3z" fill="url(#w)" fill-rule="evenodd"/>
		<path d="m120.85 80.35v0.05l0.45 2.25v0.1l0.101 0.95c0.166 1.033 0.216 1.95 0.149 2.75l0.25 21.7 0.55 4.75v0.1l0.051 0.2 0.75 7.55v0.3c0.1 1.4 0.116 2.384 0.05 2.95-0.167 2.867-1.351 4.816-3.55 5.85-1.233 0.566-3.017 0.851-5.351 0.851l-2.85 0.1-0.3 0.05c-1.2 0-2.25-0.416-3.15-1.25-0.667-0.666-1.1-1.467-1.3-2.399-0.167-0.567-0.25-1.101-0.25-1.601 0.033-0.467 0.017-1.684-0.05-3.649l-1.4 0.25-0.6 0.05-2.051 0.65c-1.433 0.467-3.449 1.316-6.05 2.55-2.7 1.3-4.916 2.267-6.649 2.899-2.834 1-5.867 1.684-9.101 2.051-0.833 0.1-1.6 0-2.3-0.301-0.5 0.233-1.083 0.384-1.75 0.45l-1.1 0.05c-1.6 0.233-2.8 0.233-3.6 0-0.4 0.101-0.816 0.15-1.25 0.15-8.233-0.3-14.033-1.533-17.4-3.7l-0.3-0.149c-1.167-0.634-2.117-1.584-2.85-2.851-0.833-1.5-1.2-3.217-1.1-5.149v-0.2c-0.066-1.467-0.05-5.367 0.05-11.7 0-1.2 0.417-12.217 1.25-33.05-0.034-0.967 0.267-1.9 0.9-2.8 0.5-1.133 1.283-1.95 2.35-2.45l0.3-0.3c2.1-1.966 4.7-2.95 7.8-2.95l1.25 0.1c1.567 0.2 2.717 1.017 3.45 2.45l0.35 0.65c0.433 0.933 0.55 1.917 0.35 2.95l-0.3 2.101c2.067 0.533 4.5 0.899 7.3 1.1 0.267-0.033 0.667-0.017 1.2 0.05h0.65l0.9 0.149 1-0.15 3.2-0.1c3.967-0.233 7.617-0.9 10.95-2 0.2-0.1 0.417-0.15 0.65-0.15l2.35-0.95c0.267-0.167 0.534-0.267 0.801-0.3l0.399-0.2 1.75-0.7c2.066-0.8 3.917-1.267 5.55-1.4h0.051l0.05-0.05c1.434-0.1 2.883-0.05 4.35 0.15 0.533 0.133 0.95 0.267 1.25 0.4 0.367 0 0.851 0.067 1.45 0.2l1.4 0.5c0.366 0.133 0.733 0.333 1.1 0.6 0.333 0.101 0.717 0.25 1.15 0.45 3.465 2 5.699 5.016 6.699 9.05zm-13.7 1.55v-0.15l-0.101-0.5c-0.1-0.4-0.116-0.867-0.05-1.4-1.167-0.3-2.05-0.916-2.65-1.85h-0.05c-0.767 0.033-1.767 0.283-3 0.75-0.733 1.167-1.783 1.85-3.149 2.05-0.4 0.067-0.801 0.067-1.2 0l-0.601 0.35c-0.767 0.367-1.55 0.5-2.35 0.4l-0.25 0.05c-3.767 1.134-7.85 1.851-12.25 2.15h-0.3c-0.233 1-0.767 1.816-1.6 2.45-0.833 0.633-1.767 0.95-2.8 0.95-0.933 0-1.767-0.25-2.5-0.75s-1.283-1.184-1.65-2.051l-0.95-0.7c-1.8-0.2-3.15-0.383-4.05-0.55-0.566 0.567-1.267 0.95-2.1 1.15-0.933 0.2-1.85 0.1-2.75-0.3-0.9-0.367-1.6-0.967-2.1-1.8l-0.55-1.1c-0.533-0.233-0.933-0.467-1.2-0.7-0.667 17.066-1 25.983-1 26.75l-0.1 10.95c0.1 0.366 0.117 0.8 0.05 1.3v0.051c0.467 0.366 1.317 0.717 2.55 1.05 2.033 0.6 4.7 1 8 1.2v-0.05l0.6-1.05c0.4-0.8 1-1.417 1.8-1.85 0.8-0.434 1.65-0.634 2.55-0.601 0.6-1.633 1.767-2.583 3.5-2.85 0.967-0.133 1.883 0.017 2.75 0.45 0.867 0.466 1.534 1.133 2 2l0.1 0.25 0.051 0.051 1.05 2.7 0.05 0.2c1.7-0.367 3.383-0.884 5.05-1.551 1.033-0.399 2.517-1.066 4.45-2 2.833-1.3 4.783-2.149 5.85-2.55 0.066-0.7 0.167-1.35 0.3-1.95 0.2-1.066 0.7-1.934 1.5-2.6 0.834-0.7 1.783-1.05 2.851-1.05 1.066-0.034 2.017 0.283 2.85 0.95 0.833 0.666 1.366 1.516 1.6 2.55l0.051 0.2c1.6 0 3 0.133 4.199 0.399 0.634 0.134 1.25 0.417 1.851 0.851l-0.9-11.15 0.05-17.05-0.05-0.55-0.6 0.1c-1.134 0.066-2.15-0.217-3.05-0.85-0.9-0.7-1.467-1.6-1.7-2.7l-0.052-0.049 1.649-0.3" fill="none" stroke="#d1deef" stroke-linejoin="round" stroke-miterlimit="3" stroke-width=".25"/>
	<path d="m115.95 84.35-0.4-2.6c-0.633-2.4-1.816-4.167-3.55-5.3l-0.1 1.25c-0.067 0.533-0.384 0.833-0.95 0.899-0.601 0-0.95-0.267-1.05-0.8l-0.551-2.65h-0.05l-0.25 0.65c-0.166 0.467-0.467 0.7-0.899 0.7-0.467 0.066-0.784-0.117-0.95-0.55l-0.75-1.45c-1.101-0.066-1.917-0.066-2.45 0-1.167 0.1-2.566 0.467-4.2 1.1l-0.25 0.05-0.95 0.4-0.149 0.5c-0.066 0.4-0.334 0.667-0.8 0.8-0.434 0.067-0.767-0.1-1-0.5l-1.25 0.5-0.051 0.051c-0.066 0.3-0.233 0.5-0.5 0.6s-0.533 0.1-0.8 0c-0.133 0.066-0.283 0.083-0.45 0.05h-0.25c-3.666 1.167-7.699 1.9-12.1 2.2l-2.75 0.1-0.45 1.5-0.05 0.3-0.05 0.1-0.15 0.6c-0.1 0.534-0.433 0.8-1 0.8-0.533 0-0.85-0.267-0.95-0.8l-0.3-1.6c-0.167 0.133-0.4 0.2-0.7 0.2-0.467 0-0.783-0.25-0.95-0.75l-0.05-0.4c-3.2-0.2-5.934-0.583-8.2-1.15l-0.1 0.8c-0.066 0.466-0.316 0.75-0.75 0.85-0.433 0.1-0.8-0.05-1.1-0.45-0.233-0.399-0.4-0.816-0.5-1.25l-0.1-0.55-0.2-0.2-1.45-0.55c-0.467-0.167-0.667-0.5-0.6-1 0.133-2.267 0.35-4.217 0.65-5.85-1.733 0.1-3.05 0.583-3.95 1.45l-1.45 1.3-0.4 0.45v0.05c-0.833 19.6-1.25 30.55-1.25 32.85l-0.1 11.45c0.066 0.2 0.083 0.367 0.05 0.5-0.133 1.267 0.184 2.283 0.95 3.05 0.167 0 0.3 0.05 0.4 0.15 2.3 1.733 7.117 2.733 14.45 3l0.6-0.7 1.35-2.35c0.2-0.434 0.567-0.617 1.1-0.551 0.467 0.101 0.733 0.417 0.8 0.95 0.034 0.434 0.017 1.101-0.05 2 0.133 0.233 0.167 0.45 0.1 0.65 0.342-2e-3 0.609-0.019 0.8-0.05l0.8-0.101h0.05c0.167-0.933 0.45-2.767 0.85-5.5 0.066-0.5 0.35-0.783 0.85-0.85 0.466-0.101 0.816 0.083 1.05 0.55l0.1 0.15 0.85 2.149 0.1 0.4 1.1 2.899c2.633-0.366 5.117-0.967 7.45-1.8 1.467-0.5 3.417-1.35 5.851-2.55 2.566-1.267 4.8-2.217 6.7-2.85l0.899-0.25c0.033-1.268 0.167-2.567 0.4-3.9 0.133-0.533 0.467-0.8 1-0.8 0.566 0 0.899 0.25 1 0.75l0.6 2.5v0.149l0.05 0.051 0.15 0.5c1.1-0.167 2.083-0.25 2.95-0.25 1.1 0 2.149 0.1 3.149 0.3 0.467 0.1 0.733 0.417 0.801 0.95 0.233 3.732 0.35 6.283 0.35 7.649l2.25-0.1c1.634-0.034 2.616-0.117 2.95-0.25 0.3-0.167 0.467-0.617 0.5-1.351 0.066-0.333 0.033-1.316-0.101-2.949v-0.2l-1.2-10.85-0.35-23.45c0.033-0.4 0-1-0.1-1.8zm1.9-1.2v0.05l0.101 0.95c0.1 0.833 0.133 1.534 0.1 2.1l0.25 22.15 1.351 12.35v0.25c0.1 1.233 0.116 2.15 0.05 2.75-0.066 1.533-0.617 2.533-1.65 3-0.7 0.3-1.967 0.45-3.8 0.45-1.267 0.033-2.283 0.083-3.05 0.149h-0.05c-0.267 0-0.5-0.1-0.7-0.3s-0.3-0.45-0.3-0.75l-0.2-0.6c0.033-1.333-0.05-3.717-0.25-7.15-1.7-0.267-3.5-0.2-5.4 0.2-0.267 0.033-0.55-0.033-0.85-0.2-0.101 0.267-0.3 0.45-0.601 0.55l-1.55 0.45c-1.6 0.533-3.767 1.45-6.5 2.75-2.666 1.267-4.767 2.184-6.3 2.75-2.6 0.9-5.383 1.533-8.35 1.9-0.533 0.066-0.883-0.15-1.05-0.65l-1.05-2.7-0.35 1.95c-0.067 0.3-0.217 0.567-0.45 0.8-0.1 0.4-0.4 0.634-0.9 0.7l-3.35 0.25c-0.267 0-0.517-0.116-0.75-0.35-0.2-0.134-0.3-0.367-0.3-0.7l-0.35 0.4c-0.167 0.467-0.483 0.666-0.95 0.6-7.867-0.267-13.167-1.367-15.9-3.3l-0.25-0.101c-0.4-0.232-0.783-0.6-1.15-1.1-0.7-0.967-1.017-2.15-0.95-3.55v-0.1c-0.066-0.666-0.05-4.684 0.05-12.05 0-1.333 0.2-6.917 0.6-16.75 0.367-9.433 0.6-14.917 0.7-16.45-0.066-0.267 0.083-0.616 0.45-1.05 0.167-0.633 0.55-1 1.15-1.1l0.8-0.75c1.067-1 2.417-1.617 4.05-1.851 0.833-0.133 1.55-0.166 2.15-0.1 0.333 0.066 0.583 0.25 0.75 0.55l0.35 0.7c0.133 0.233 0.167 0.45 0.1 0.65l-0.2 1.3c-0.167 1.167-0.317 2.5-0.45 4l0.85 0.3 0.4 0.25 0.3 0.3c0.267-0.1 0.533-0.133 0.8-0.1 2.533 0.7 5.45 1.149 8.75 1.35 0.367-0.033 0.667 0.017 0.9 0.15l0.4-0.101h0.4c0.333 0 0.583 0.134 0.75 0.4l0.3 0.35h0.05c0.1-0.433 0.4-0.683 0.9-0.75l3.45-0.1c4.3-0.3 8.234-1.033 11.8-2.2l0.45-0.048 0.3 0.05c0.166-0.233 0.35-0.383 0.55-0.45l2.05-0.75c0.2-0.166 0.417-0.216 0.65-0.149 0.1-0.134 0.233-0.233 0.399-0.3l1.651-0.651c1.7-0.667 3.283-1.083 4.75-1.25 1.066-0.1 2.233-0.066 3.5 0.1 0.3 0.067 0.533 0.233 0.7 0.5l0.2 0.351c0.3-0.267 0.633-0.4 1-0.4l1.5 0.45c0.366 0.167 0.566 0.4 0.6 0.7 0.2-0.034 0.467-0.034 0.8 0l0.351 0.149c2.6 1.5 4.283 3.784 5.05 6.851 0.132 0.432 0.266 1.082 0.399 1.949zm-6.8-3.7c0.5-0.167 0.917-0.05 1.25 0.35l0.15 0.25c0.1 0.167 0.149 0.367 0.149 0.6v0.35c0 0.267-0.083 0.483-0.25 0.65-0.166 0.2-0.383 0.317-0.649 0.35h-0.1c-0.566 0-0.899-0.25-1-0.75v-0.15l-0.1-0.5c-0.1-0.534 0.083-0.916 0.55-1.15z" fill="#1c3330" fill-rule="evenodd"/>
			<radialGradient id="x" cx="129.28" cy="-102.6" r="6.9903" gradientTransform="matrix(.0626 .998 1.0566 -.0663 210.81 -13.231)" gradientUnits="userSpaceOnUse">
			<stop stop-color="#B4A881" offset="0"/>
			<stop stop-color="#8D8053" offset="1"/>
		</radialGradient>
		<path d="m110 110-0.15-2.35 1.55 1.35c0.966 0.833 2.267 2.5 3.899 5 2.066 3.166 3.184 5.767 3.351 7.8 0.133 2.033-0.384 3.217-1.551 3.55-2.166 0.134-4.216 0.25-6.149 0.351 0.066-1.767-0.066-4.884-0.4-9.351-0.3-3.934-0.484-6.05-0.55-6.35z" fill="url(#x)" fill-rule="evenodd"/>
		<path d="m113.95 78.95 0.7 6.05-3.9-5.65 0.35-4c0.034-0.1 0.184-0.149 0.45-0.149h0.351c1.299 2.233 1.983 3.483 2.049 3.749z" fill="#cabc99" fill-rule="evenodd"/>
		<path d="m108.85 74.2 0.35-0.1c-0.134 3.967-0.184 6.15-0.15 6.55l-10.5 1.35-2.25-4.8v-0.601c0.066-0.433 0.217-0.716 0.45-0.85 0.2-0.133 0.45 0.066 0.75 0.6 0.434 0.767 0.717 1.217 0.85 1.351 0.467 0.433 1.25-0.017 2.351-1.351l6.85 0.9 0.5-1.7c0.23-0.699 0.5-1.149 0.8-1.349z" fill="#cabc99" fill-rule="evenodd"/>
		<path d="m94.8 79.6-1.45-0.55c-0.033-0.3-0.05-0.6-0.05-0.9 0-0.6 0.15-0.95 0.45-1.05 0.467-0.166 0.85-0.05 1.15 0.351l0.35 0.7-0.45 1.449z" fill="#cabc99" fill-rule="evenodd"/>
		<path d="m75.7 79.35 0.65 0.8 0.3 1.65c0.1 0.567 0.434 1.983 1 4.25l-3.65-0.4c0-0.033-0.066-1.017-0.2-2.95-0.133-1.833-0.1-2.9 0.1-3.2s0.4-0.333 0.6-0.1c0.1 0.1 0.184 0.233 0.25 0.4l0.4 1.75 0.55-2.2z" fill="#cabc99" fill-rule="evenodd"/>
		<path d="m65.85 81.5 0.55 4.25c-0.9 0.1-1.45 0.133-1.65 0.1-0.133-0.033-0.417-0.483-0.85-1.35-0.4-0.833-0.617-1.35-0.65-1.55l0.2-5.5 0.6 0.649 0.15 0.851c0.1 0.533 0.65 1.383 1.65 2.55z" fill="#cabc99" fill-rule="evenodd"/>
		<path d="m116.95 95.9c-0.066 7.899 0.1 13.199 0.5 15.899 1.166 7.733 1.566 11.767 1.2 12.101-0.567-1.4-1.584-2.7-3.051-3.9-3-2.4-6.833-3.15-11.5-2.25-0.466-1.1-0.833-2.383-1.1-3.85-0.066-0.234 0.017-0.617 0.25-1.15 0.2-0.6 0.3-1 0.3-1.2-0.166 0.233-0.283 0.55-0.35 0.95-0.434 1.7-0.65 3.533-0.65 5.5v0.15l-1.55 0.45c-0.634 0.2-3.767 1.566-9.4 4.101-3.767 1.7-7.633 2.783-11.6 3.25l-1.35-3.65c-0.3-1.767-0.617-2.85-0.95-3.25-0.4 2.8-0.733 4.9-1 6.3 0 0.101-0.067 0.217-0.2 0.351-0.1 0.133-0.167 0.25-0.2 0.35-1.5 0.167-2.616 0.25-3.35 0.25v-0.55c0-0.233 0.167-0.85 0.5-1.85 0.3-0.934 0.417-1.584 0.35-1.95l-0.2-0.7c-0.167 0.1-0.217 0.233-0.15 0.4-0.133 0.467-0.4 1.033-0.8 1.699-0.2 0.4-0.517 0.95-0.95 1.65-0.034 0.1-0.2 0.283-0.5 0.55-0.267 0.3-0.434 0.533-0.5 0.7-8.233-0.267-13.517-1.434-15.85-3.5-0.434-1.767-0.65-2.717-0.65-2.85 0.066-0.533 0.216-1.084 0.45-1.65 6e-3 -0.017 0.014-0.033 0.025-0.05l-0.825 1.149 0.9-21.3c0.1 0 1.317 0.083 3.65 0.25 1.467 0.101 2.667 0.167 3.6 0.2 2.5 0.1 6.233 0.233 11.2 0.4 4.3 0.133 8.017 0.183 11.15 0.149 4.466-0.066 9.9-0.467 16.3-1.2 3.633-0.399 9.067-1.049 16.3-1.949z" fill="#b6a081" fill-rule="evenodd"/>
		<path d="m111.15 126.35c-0.101-0.232-0.15-0.467-0.15-0.699 3.566-0.268 5.5-0.45 5.8-0.551 1.101-0.434 1.434-1.633 1-3.6 0.601 0.633 0.9 0.967 0.9 1 0.133 2.033-0.367 3.2-1.5 3.5-2.1 0.1-4.117 0.217-6.05 0.35z" fill="#b6a081" fill-rule="evenodd"/>
		<path d="m116.85 121.05 1.45 1.2c0.3 0.566 0.066 1.633-0.7 3.2-0.5 0.833-0.483 0.616 0.051-0.65 0.333-0.8 0.3-1.667-0.101-2.6l-0.7-1.15z" fill="#b6a081" fill-rule="evenodd"/>
			<radialGradient id="r" cx="103.1" cy="-103.27" r="54.896" gradientTransform="matrix(.0629 .998 .9914 -.0625 205.44 -12.954)" gradientUnits="userSpaceOnUse">
			<stop stop-color="#F6F0D9" offset="0"/>
			<stop stop-color="#D7C9A1" offset="1"/>
		</radialGradient>
		<path d="m116.15 80.25c0.6 1.667 0.899 3.85 0.899 6.55 0 1.934-0.017 5.866-0.05 11.8 0.033 5.467 0.2 9.4 0.5 11.801 0.5 3.8 0.9 7.833 1.2 12.1-0.566-1.434-1.617-2.767-3.15-4-3.1-2.434-7.066-3.117-11.899-2.05-0.134-0.367-0.351-1.217-0.65-2.55-0.233-1.101-0.35-1.801-0.35-2.101-0.233 0.267-0.351 0.583-0.351 0.95-0.3 1.066-0.517 2.483-0.649 4.25l-0.601 0.2c-0.233 0.066-3.483 1.466-9.75 4.2-3.967 1.732-7.9 2.816-11.8 3.25l-0.85-2.351c-0.6-1.767-1.066-2.85-1.4-3.25-0.566 3.7-0.867 5.634-0.9 5.8l-3.35 0.05c0.067-1.467 0.067-2.4 0-2.801l-0.2-0.7c-0.133 0.1-0.183 0.25-0.15 0.449-0.267 0.801-0.7 1.801-1.3 3-8.367-0.366-13.8-1.517-16.3-3.449 0.067-0.533-0.033-0.834-0.3-0.9-0.244-0.092-0.361-0.35-0.35-0.775 0.01 0.06 0.093-0.199 0.25-0.774 0.133-0.667 0.15-0.934 0.05-0.8l-0.85 1.199 0.9-21.75c0.2-4.066 0.317-9.366 0.35-15.899l0.05-8.55 0.25-0.4c0.233-0.133 0.6 0.133 1.1 0.8 0.4 0.533 1.133 1.117 2.2 1.75 1.333 0.833 2.917 1.55 4.75 2.15l0.05 0.85c0.1 1.167 0.4 2.434 0.9 3.8 0.1-1.866 0.217-3.083 0.35-3.649l0.2-0.5c3.033 0.767 6.167 1.216 9.4 1.35l0.35 1.95 0.1-0.45 0.45-1.45h0.45c0.1 1 0.383 2.65 0.85 4.95 0.034-0.633 0.217-1.533 0.55-2.7l0.65-2.25 3.45-0.1c4.399-0.3 8.416-1.05 12.05-2.25l0.5 0.1 0.55 0.4 0.3-0.95 2.15-0.8 0.6 3c0.034-0.4 0.034-0.867 0-1.4 0-0.333 0.134-1 0.4-2 1.934-0.8 3.434-1.333 4.5-1.6 1.566-0.333 3.167-0.383 4.8-0.15 0.5 0.834 0.95 1.7 1.351 2.601l0.8-2.101 1.1 0.351 1.3 6.6 0.15-4.8 0.15-1.05c1.999 1.13 3.415 2.814 4.249 5.047z" fill="url(#r)" fill-rule="evenodd"/>
		<path d="m83.7 119.75c0.667 1.133 1.316 2.367 1.95 3.7-1.034 0.3-2.101 0.55-3.2 0.75l-3.55-4.2c-0.233-0.167-0.4-0.35-0.5-0.55 0.534-0.567 1.017-1.684 1.45-3.351 0-0.333 0.033-0.55 0.1-0.649l0.45-0.2c0.167-0.066 0.3-0.167 0.4-0.3l1.25-0.95c0.567-0.434 1.083-1.1 1.55-2 0.433-1.066 0.783-1.85 1.05-2.35 0.1 0.666 0.184 1.6 0.25 2.8l-0.4-1.5c-0.167 0-0.467 0.433-0.9 1.3-0.233 0.467-0.483 0.983-0.75 1.55-0.067 0.134-0.283 0.467-0.65 1-0.333 0.5-0.5 0.851-0.5 1.05 0 0.667 0.667 1.966 2 3.9z" fill="#d9ceae" fill-rule="evenodd"/>
		<polygon points="86.75 122.95 86.55 123.1 86.45 121.55" fill="#d9ceae" fill-rule="evenodd"/>
		<path d="m73.35 88.8c0.133 0.9 0.566 3.366 1.3 7.4l1.15 5.75-0.75 1.6c-0.8 0.167-1.4 0.25-1.8 0.25-0.267-0.033-0.6-0.116-1-0.25-0.5-0.167-0.833-0.267-1-0.3l-0.35-0.05c-0.066-0.067-0.383-0.634-0.95-1.7-0.4-0.533-0.7-0.967-0.9-1.3-0.366-0.601-0.55-1.083-0.55-1.45 0.2-0.834 0.317-1.334 0.35-1.5l0.6-2.55c0.1-0.233 0.183-0.65 0.25-1.25l0.2-0.351 0.65-0.5c0.5-0.434 0.867-0.85 1.1-1.25 0.367-0.899 0.7-1.533 1-1.899l0.7-0.65z" fill="#d9cfae" fill-rule="evenodd"/>
		<path d="m54.3 108.8 6.25 1.15c0.9-0.067 1.583-0.067 2.05 0 0.867 0.1 1.95 0.433 3.25 1 0.233 0.1 0.367 0.167 0.4 0.2 0.067 0.066 0.117 0.217 0.15 0.449 0.434 1.434 0.667 2.816 0.7 4.15 0.033 0.867 0.2 1.816 0.5 2.85-0.133 0.066-0.25 0.417-0.35 1.051-0.033 0.166-0.217 0.583-0.55 1.25l-0.4 1c-0.133 0.3-0.15 0.633-0.05 1 0.033 0.199 0.15 0.516 0.35 0.949 0.066 0.2 0.133 0.316 0.2 0.351 0.134 0.066 0.567-0.134 1.3-0.601 0.6-0.399 0.933-0.6 1-0.6 0.2 0 0.367 0.1 0.5 0.3l0.9 1.25c0.033 0.101 0.033 0.184 0 0.25-7.867-0.399-13.017-1.533-15.45-3.399 0.067-0.533-0.033-0.834-0.3-0.9-0.244-0.092-0.361-0.35-0.35-0.775 0.01 0.06 0.093-0.199 0.25-0.774 0.133-0.667 0.15-0.934 0.05-0.8l-0.85 1.199 0.45-10.55z" fill="#d5c6a1" fill-rule="evenodd"/>
		<path d="m55.15 73.15 0.25-0.4c0.233-0.133 0.6 0.133 1.1 0.8 0.434 0.6 1.317 1.283 2.65 2.05l4.85 5.25 0.1 0.45-0.05 1.7c0.167 1.133 0.684 2.133 1.55 3 0.167 0.2 0.35 0.283 0.55 0.25 0.133 0 0.35-0.033 0.65-0.1 0.134 0.166 0.2 0.399 0.2 0.699l0.4 2.851-0.55-0.25c-1.267-0.233-2.233-0.467-2.9-0.7-1.8-0.834-3.167-1.35-4.1-1.55-0.167-0.167-0.367-0.2-0.6-0.101l-4.35 6.901c0.133-3.934 0.217-8.583 0.25-13.95v-6.9z" fill="#d5c6a1" fill-rule="evenodd"/>
		<path d="m67.55 91.05 0.15 1.35 0.05 0.1-0.5 0.7c-0.633 1.066-1.133 1.95-1.5 2.649l-1.55 3.251c-0.034 0.167 0 0.566 0.1 1.2l-0.1 2.65c0 0.466-0.034 0.733-0.1 0.8-0.333 0.333-0.667 0.566-1 0.7-1.867 1-3.383 1.649-4.55 1.95-0.267 0.133-0.583 0.199-0.95 0.199h-0.15c-0.7-0.434-1.383-1.267-2.05-2.5l-0.85-1.699 0.1-2.551h0.05c1.367 0.101 3.5 0.217 6.4 0.351 0.733 0.1 1.4 0.083 2-0.05 0-0.167 0.066-0.384 0.2-0.65 0.2-0.367 0.317-0.6 0.35-0.7 0.434-0.933 0.717-1.616 0.85-2.05 0.233-1.133 0.7-2.3 1.4-3.5 0.667-1 1.2-1.717 1.6-2.15l0.05-0.05z" fill="#d5c6a1" fill-rule="evenodd"/>
		<path d="m98.15 107.5c0.366 0.267 1.5 0.983 3.399 2.15l-0.3 3.199c-0.1 1.667-0.116 3.101-0.05 4.301l-0.15 0.05c-1.633 0.566-4.066 1.6-7.3 3.1l-0.05-0.35c-0.233-1.034-0.867-2.267-1.9-3.7-0.267-0.334-0.467-0.584-0.6-0.75-0.233-0.3-0.367-0.584-0.4-0.85 0-0.067-0.05-0.851-0.149-2.351-0.134-0.967-0.15-1.566-0.051-1.8l0.4-0.2 1.7-1.55c0.733-0.733 1.3-1.283 1.7-1.65 0.733-0.633 1.416-1.017 2.05-1.149l0.25 0.25c0.301 0.333 0.784 0.767 1.451 1.3z" fill="#f1e5ca" fill-rule="evenodd"/>
		<path d="m87.55 86.45c0-0.601 0.05-1 0.15-1.2l0.35-0.35c0.167-0.2 0.334-0.5 0.5-0.9 0.167-0.434 0.283-0.75 0.351-0.95 0.433-1.033 0.716-1.633 0.85-1.8 0.033 0 0.167 0.184 0.4 0.55 0.566 0.7 1.6 1.567 3.1 2.6 0.267 0.233 0.434 0.45 0.5 0.65 0.333 1.167 0.634 2.4 0.9 3.7l0.449 2.4 0.051 0.1-5.4 7.65-0.151-0.3-0.25-1.25c-0.166-0.633-0.566-1.649-1.199-3.05l-0.5-1.149-0.101-0.5-0.1-2.101c0-2.134 0.033-3.5 0.1-4.1z" fill="#f1e5ca" fill-rule="evenodd"/>
		<path d="m78.35 105.75c0.367-1.967 0.6-3.45 0.7-4.45l0.15-1.5c0.066-0.033 0.183-0.017 0.35 0.05 0.367 0.066 0.884 0.25 1.55 0.551 0.9 0.333 1.417 0.55 1.55 0.649 0.067 0.033 0.117 0.116 0.15 0.25l0.05 0.25c0.033 0.233 0.217 0.567 0.55 1 0.667 1.134 1.133 2.101 1.4 2.9 0.334 0.966 0.5 1.517 0.5 1.649l-2.65 4.45c-0.2 0.033-0.833 0.101-1.9 0.2l-0.4-1.2c-0.367-0.866-0.883-1.899-1.55-3.1l-0.55-0.95 0.1-0.749z" fill="#eee2c7" fill-rule="evenodd"/>
		<path d="m73.15 84.85 0.85 0.8c0.3 0.333 0.7 0.817 1.2 1.45 0.5 0.566 0.95 1.018 1.35 1.351 0.1 0.1 0.267 0.233 0.5 0.399 0.2 0.167 0.317 0.334 0.35 0.5v0.601c0.034 0.466 0.034 0.933 0 1.399 0 0.601-0.066 1.601-0.2 3-0.1 1.268-0.15 2.25-0.15 2.95l0.1 2.8-0.95 4.051v-0.15l-1.55-7.8c-0.733-4.034-1.167-6.5-1.3-7.4l-0.35-3.25c-0.133-0.333-0.133-0.633 0-0.9l0.15 0.2z" fill="#e6dbba" fill-rule="evenodd"/>
		<path d="m114.25 79.95 1.1-1.351c1.134 1.9 1.7 4.634 1.7 8.2 0 1.934-0.017 5.866-0.05 11.8 0.033 5.467 0.2 9.4 0.5 11.801 0.434 3.266 0.816 7.016 1.15 11.25-1.267-1.667-2.483-3-3.65-4-0.233-0.268-0.483-0.45-0.75-0.551v-4.1c0.634 0.133 1.167 0 1.6-0.4 0.267-0.199 0.384-0.5 0.351-0.899-0.066-0.467-0.117-0.833-0.15-1.101-0.033-0.199-0.25-0.866-0.649-2-0.134-0.566-0.25-1.017-0.351-1.35-0.166-0.6-0.35-1.033-0.55-1.3l-0.15-0.101-0.15-6.15c-0.8-1.3-1.316-2.934-1.55-4.9l-0.45-0.1c0.2-0.767 0.35-1.333 0.45-1.7 0.133-0.7 0.216-1.283 0.25-1.75 0.033-1.167-0.217-2.483-0.75-3.95-0.2-0.533-0.75-1.8-1.65-3.8 0.267-0.066 0.616-0.316 1.05-0.75 0.867-0.8 1.766-1.733 2.7-2.8z" fill="#f6ead0" fill-rule="evenodd"/>
		<path d="m114.2 99.7 0.2 8.5-1.25 0.1c-1.267 0.067-2.167 0.033-2.7-0.1-0.2-0.067-0.316-0.134-0.351-0.2-0.033-0.1-0.1-0.233-0.199-0.4-0.467-1-1.134-2.25-2-3.75-1.134-2-1.834-3.25-2.101-3.75-0.333-0.699-0.483-1.133-0.45-1.3 0.233-0.467 0.534-0.933 0.9-1.399 0.467-0.567 0.967-1.283 1.5-2.15 0.333-0.867 0.616-1.5 0.85-1.9 0.434 0.2 1.067 0.551 1.9 1.051 0.366 0.166 0.934 0.266 1.7 0.3l0.45 0.1c0.235 1.965 0.751 3.598 1.551 4.898z" fill="#ede5cb" fill-rule="evenodd"/>
		<path d="m97.75 75.35c2.7-1.1 4.75-1.716 6.15-1.85-0.9 1.8-1.684 4.133-2.351 7-0.3 1.333-0.55 2.566-0.75 3.7-0.166 0.833-0.217 1.433-0.149 1.8-0.267-0.233-0.434-0.55-0.5-0.95-0.767-1.767-1.434-3.633-2-5.6l-0.65-3.1 0.25-1z" fill="#dad4b6" fill-rule="evenodd"/>
			<radialGradient id="a" cx="118.8" cy="97.6" r="66.1" gradientTransform="matrix(1 0 0 -.9781 0 193.06)" gradientUnits="userSpaceOnUse">
			<stop stop-color="#72A29A" offset="0"/>
			<stop stop-color="#5B7A71" offset="1"/>
		</radialGradient>
		<path d="m76.1 82 0.05 0.4c-1.933 0.1-3.733 0.1-5.4 0-2.3-0.133-4.4-0.483-6.3-1.05l0.05-0.45c1.867 0.534 3.983 0.9 6.35 1.1 1.6 0.1 3.35 0.1 5.25 0z" fill="url(#a)" fill-rule="evenodd"/>
		<path d="m64.1 81.25c-1.7-0.533-3.184-1.184-4.45-1.95l-1.4-1.05-3.1-1.65v-0.65l3.1 1.75 1.35 1.05c1.233 0.8 2.683 1.467 4.35 2l0.15 0.5z" fill="url(#a)" fill-rule="evenodd"/>
			<radialGradient id="s" cx="118.8" cy="97.6" r="66.113" gradientTransform="matrix(1 0 0 -.9781 0 193.06)" gradientUnits="userSpaceOnUse">
			<stop stop-color="#72A29A" offset="0"/>
			<stop stop-color="#5B7A71" offset="1"/>
		</radialGradient>
		<path d="m111 78.15c-1.667-0.6-3.5-0.867-5.5-0.8-1.9 0.067-3.8 0.434-5.7 1.101-2.399 0.866-5.75 1.683-10.05 2.45-4.533 0.767-8.816 1.267-12.85 1.5l0.1-0.45c3.367-0.167 7-0.567 10.9-1.2 3.566-0.6 6.699-1.283 9.399-2.05l0.05 0.05v-0.051l2.601-0.8c1.866-0.7 3.717-1.1 5.55-1.2 1.934-0.101 3.717 0.149 5.35 0.75l0.15 0.7z" fill="url(#s)" fill-rule="evenodd"/>
		<path d="m116.1 81.4 0.601 0.9 0.149 1-0.949-1.45c-1.101-1.466-2.5-2.6-4.2-3.399v-0.651c1.766 0.766 3.233 1.967 4.399 3.6z" fill="url(#a)" fill-rule="evenodd"/>
			<radialGradient id="t" cx="118.8" cy="97.55" r="66.125" gradientTransform="matrix(1 0 0 -.9781 0 192.96)" gradientUnits="userSpaceOnUse">
			<stop stop-color="#72A29A" offset="0"/>
			<stop stop-color="#5B7A71" offset="1"/>
		</radialGradient>
		<path d="m111.9 112.6c-2.5-0.6-5.551-0.566-9.15 0.101l-0.1-0.75c3.566-0.601 6.6-0.634 9.1-0.101 2.8 0.667 4.917 1.867 6.35 3.601l0.051 0.7c-1.401-1.701-3.484-2.884-6.251-3.551z" fill="url(#t)" fill-rule="evenodd"/>
		<path d="m102.55 112c-0.166 0.233-0.25 0.483-0.25 0.75l-0.05 0.05c-2.667 0.5-5.75 1.384-9.25 2.65-3.667 1.366-6.134 2.283-7.4 2.75-2.133 0.8-4.7 1.517-7.7 2.149l-0.45-0.95c2.867-0.533 5.55-1.25 8.05-2.15 1.3-0.467 3.816-1.367 7.55-2.7 3.566-1.2 6.733-2.05 9.5-2.55z" fill="url(#a)" fill-rule="evenodd"/>
		<path d="m77.2 119.45-0.2 1.05c-5.7 1.066-10.217 1.233-13.55 0.5-4.3-0.967-7.45-2.684-9.45-5.15l0.05-0.75c1.134 1.268 2.534 2.316 4.2 3.15 1.367 0.666 3.083 1.233 5.15 1.7 3.367 0.734 7.967 0.567 13.8-0.5z" fill="url(#a)" fill-rule="evenodd"/>
		<path d="m115.9 81.85 0.949 1.45c0.134 1.033 0.2 2.2 0.2 3.5 0 1.934-0.017 5.866-0.05 11.8 0.033 5.467 0.2 9.4 0.5 11.801l0.6 5.05c-1.433-1.733-3.55-2.934-6.35-3.601-2.5-0.533-5.533-0.5-9.1 0.101v-0.15l-0.101 0.2c-2.767 0.5-5.934 1.35-9.5 2.55-3.733 1.333-6.25 2.233-7.55 2.7-2.5 0.9-5.183 1.617-8.05 2.15l-0.2-0.351-0.05 0.4c-5.833 1.066-10.434 1.233-13.8 0.5-2.066-0.467-3.783-1.034-5.15-1.7-1.667-0.834-3.066-1.883-4.2-3.15l0.7-17.5c0.267-5.232 0.4-12.233 0.4-21l3.1 1.65 1.4 1.05c1.267 0.767 2.75 1.417 4.45 1.95l0.3 0.85 0.05-0.75c1.9 0.567 4 0.917 6.3 1.05 1.667 0.1 3.467 0.1 5.4 0l0.4 1.9c0.034-0.433 0.15-1.066 0.35-1.9 4.034-0.233 8.317-0.733 12.85-1.5 4.3-0.767 7.65-1.583 10.05-2.45 1.9-0.667 3.8-1.034 5.7-1.101 2-0.066 3.833 0.2 5.5 0.8l0.6 2.9 0.101-2.6c1.701 0.801 3.101 1.934 4.201 3.401z" fill="url(#a)" fill-rule="evenodd"/>
		<path d="m115.9 81.85 0.949 1.45c0.134 1.033 0.2 2.2 0.2 3.5 0 1.934-0.017 5.866-0.05 11.8 0.033 5.467 0.2 9.4 0.5 11.801l0.6 5.05c-1.433-1.733-3.55-2.934-6.35-3.601-2.5-0.533-5.533-0.5-9.1 0.101v-0.15l-0.101 0.2c-2.767 0.5-5.934 1.35-9.5 2.55-3.733 1.333-6.25 2.233-7.55 2.7-2.5 0.9-5.183 1.617-8.05 2.15l-0.2-0.351-0.05 0.4c-5.833 1.066-10.434 1.233-13.8 0.5-2.066-0.467-3.783-1.034-5.15-1.7-1.667-0.834-3.066-1.883-4.2-3.15l0.7-17.5c0.267-5.232 0.4-12.233 0.4-21l3.1 1.65 1.4 1.05c1.267 0.767 2.75 1.417 4.45 1.95l0.3 0.85 0.05-0.75c1.9 0.567 4 0.917 6.3 1.05 1.667 0.1 3.467 0.1 5.4 0l0.4 1.9c0.034-0.433 0.15-1.066 0.35-1.9 4.034-0.233 8.317-0.733 12.85-1.5 4.3-0.767 7.65-1.583 10.05-2.45 1.9-0.667 3.8-1.034 5.7-1.101 2-0.066 3.833 0.2 5.5 0.8l0.6 2.9 0.101-2.6c1.701 0.801 3.101 1.934 4.201 3.401z" fill="#7daeae" fill-rule="evenodd"/>
			<use transform="matrix(1 0 0 -1 110.13 16.973)" x="-0.029999999" y="-32.57" width="46.880001" height="32.57" enable-background="new" opacity=".6094" xlink:href="#p"/>
		<path d="m77.05 84.7c0.3-0.9 0.85-1.7 1.65-2.4l1.45-0.15c-1.333 0.867-2.15 1.917-2.45 3.15-0.2 0.767-0.35 2.15-0.45 4.15-1.633 0.066-2.767 0.216-3.4 0.45-1.166 0.4-1.783 1.15-1.85 2.25-0.066 1 0.15 1.516 0.65 1.55 0.833 0.066 1.35 0.2 1.55 0.399 0.267 0.268 0.45 0.717 0.55 1.351 0.133 0.7 0.067 1.2-0.2 1.5-0.4 0.466-1.267 0.733-2.6 0.8-1.567 0.033-2.55 0.166-2.95 0.4-0.566 0.3-1.1 0.717-1.6 1.25-0.566 0.566-0.933 1.116-1.1 1.649-0.133 0.467-0.066 1.116 0.2 1.95 0.267 0.867 0.317 1.517 0.15 1.95-2.233 0.333-3.45 1.533-3.65 3.6-0.1 1.366 0.15 2.25 0.75 2.65 0.5 0.3 1.483 0.417 2.95 0.35 1.066-0.033 2.333-0.399 3.8-1.1 1.633-0.8 2.867-1.267 3.7-1.4 2.867-0.467 4.6-0.183 5.2 0.851 0.2 0.366 0.267 0.933 0.2 1.699-0.067 0.533 0.233 0.983 0.9 1.351 1 0.533 2.217 0.583 3.65 0.149 1.466-0.467 2.433-1.184 2.9-2.149 0.134-0.233 0.233-0.917 0.3-2.05 0.067-0.934 0.284-1.533 0.65-1.801 0.566-0.366 2.55-0.383 5.95-0.05 0.934 0.101 1.517 0.283 1.75 0.55 0.399 0.434 0.816 0.768 1.25 1 1.066 0.533 2.45 0.684 4.149 0.45 0.601-0.066 1.733-0.366 3.4-0.899 1.267-0.434 2.434-0.601 3.5-0.5-0.066 1.399 0.333 2.683 1.2 3.85h-0.95c-0.6-0.967-0.95-2.017-1.05-3.15-0.834 0-1.834 0.233-3 0.7-1.167 0.4-2.167 0.65-3 0.75-1.834 0.233-3.384 0.05-4.65-0.55-0.6-0.3-1.066-0.667-1.399-1.1-0.101-0.167-0.534-0.283-1.301-0.351-1.866-0.2-3.316-0.283-4.35-0.25-0.634 0.101-0.967 0.15-1 0.15-0.2 0.167-0.333 0.733-0.4 1.7-0.066 0.933-0.183 1.55-0.35 1.85-0.533 1.166-1.667 2.017-3.4 2.55-1.633 0.5-3.05 0.434-4.25-0.2-1-0.533-1.417-1.3-1.25-2.3 0.066-0.399 0.017-0.75-0.15-1.05-0.434-0.733-1.883-0.9-4.35-0.5-0.767 0.133-1.817 0.533-3.15 1.2-1.8 0.866-3.3 1.316-4.5 1.35-1.934 0.067-3.2-0.2-3.8-0.8-0.6-0.667-0.833-1.667-0.7-3 0.233-2.334 1.483-3.733 3.75-4.2 0-0.267-0.083-0.616-0.25-1.05-0.3-1.033-0.35-1.834-0.15-2.4 0.2-0.666 0.617-1.316 1.25-1.949 0.567-0.601 1.184-1.067 1.85-1.4 0.467-0.267 1.4-0.434 2.8-0.5 1.367 0 2.2-0.184 2.5-0.55 0.1-0.134 0.117-0.434 0.05-0.9-0.1-0.467-0.233-0.767-0.4-0.899-0.1-0.134-0.317-0.2-0.65-0.2-0.567 0-1-0.134-1.3-0.4-0.333-0.333-0.483-0.983-0.45-1.95 0.066-1.3 0.716-2.217 1.95-2.75 0.767-0.333 1.9-0.533 3.4-0.6l0.1-1.35c0.067-1.201 0.2-2.101 0.4-2.701z" fill="#898256" fill-rule="evenodd"/>
		<path d="m114.5 111.3c1 0.167 2.05 0.184 3.15 0.05l0.399 3.801-0.25-0.051c-1.434-1.533-3.45-2.616-6.05-3.25l-2.55-0.35c-0.867-1.167-1.267-2.45-1.2-3.85-1.066-0.101-2.233 0.066-3.5 0.5-1.667 0.533-2.8 0.833-3.4 0.899-1.699 0.233-3.083 0.083-4.149-0.45-0.434-0.232-0.851-0.566-1.25-1-0.233-0.267-0.816-0.449-1.75-0.55-3.4-0.333-5.384-0.316-5.95 0.05-0.366 0.268-0.583 0.867-0.65 1.801-0.066 1.133-0.166 1.816-0.3 2.05-0.467 0.966-1.434 1.683-2.9 2.149-1.433 0.434-2.65 0.384-3.65-0.149-0.667-0.367-0.967-0.817-0.9-1.351 0.066-0.767 0-1.333-0.2-1.699-0.6-1.033-2.333-1.317-5.2-0.851-0.833 0.134-2.067 0.601-3.7 1.4-1.467 0.7-2.733 1.066-3.8 1.1-1.467 0.067-2.45-0.05-2.95-0.35-0.6-0.4-0.85-1.284-0.75-2.65 0.2-2.066 1.417-3.267 3.65-3.6 0.167-0.434 0.117-1.083-0.15-1.95-0.267-0.834-0.333-1.483-0.2-1.95 0.167-0.533 0.534-1.083 1.1-1.649 0.5-0.533 1.034-0.95 1.6-1.25 0.4-0.234 1.383-0.367 2.95-0.4 1.333-0.066 2.2-0.334 2.6-0.8 0.267-0.3 0.333-0.8 0.2-1.5-0.101-0.634-0.284-1.083-0.551-1.351-0.2-0.199-0.717-0.332-1.55-0.399-0.5-0.034-0.716-0.55-0.65-1.55 0.067-1.101 0.684-1.851 1.85-2.25 0.633-0.234 1.767-0.384 3.4-0.45 0.1-2 0.25-3.384 0.45-4.15 0.3-1.233 1.117-2.283 2.45-3.15l2.65-0.25c-1.167 1.167-1.833 1.867-2 2.1-0.366 0.467-0.6 0.9-0.7 1.3-0.067 0.333-0.1 0.833-0.1 1.5v1.3c-0.033 0.5-0.183 0.917-0.45 1.25-0.366 0.434-0.9 0.7-1.6 0.801-0.833 0.066-1.4 0.217-1.7 0.449-0.5 0.367-0.733 0.768-0.7 1.2 0.034 0.4 0.284 0.75 0.75 1.05 0.233 0.167 0.583 0.334 1.05 0.5 0.333 0.167 0.566 0.417 0.7 0.75 0.067 0.134 0.1 0.617 0.1 1.45-0.033 0.7-0.25 1.15-0.65 1.351-0.1 0.066-0.667 0.183-1.7 0.35-0.933 0.133-1.517 0.35-1.75 0.65-0.167 0.199-0.316 0.732-0.45 1.6-0.934 0.133-1.567 0.267-1.9 0.4-0.567 0.199-1.083 0.583-1.55 1.149-0.267 0.366-0.433 0.8-0.5 1.3v1.45c0 1.134 0.017 1.75 0.05 1.851 0.133 0.5 0.6 0.8 1.4 0.899 0.633 0.101 1.633 0.101 3 0 1.367-0.066 2.383-0.066 3.05 0 0.467 0.033 1.017 0.333 1.65 0.9 0.634 0.5 1.217 0.783 1.75 0.85 1.333 0.167 2.25-0.116 2.75-0.85 1.034-1.5 1.583-2.284 1.65-2.351 0.399-0.333 0.783-0.55 1.149-0.649 0.267-0.067 0.717-0.134 1.351-0.2 0.566-0.033 1.517-0.133 2.85-0.3 1.167-0.067 2.084 0.05 2.75 0.35 0.233 0.101 0.851 0.333 1.851 0.7 0.899 0.4 1.333 0.733 1.3 1 0.233 0.033 1.333 0.05 3.3 0.05 0.733-0.033 1.55-0.283 2.45-0.75 1.267-0.733 2.017-1.149 2.25-1.25 1.233-0.5 2.583-0.45 4.05 0.15 1.467 0.566 2.467 1.433 3 2.6 0.167 0.3 0.283 0.851 0.35 1.65 0.101 0.733 0.25 1.267 0.45 1.6 0.366 0.634 1.182 1.05 2.449 1.25z" fill="#d8cd8a" fill-rule="evenodd"/>
		<path d="m103.4 99.2c-0.767 0-1.233 0.116-1.4 0.35-0.333 0.4-0.434 0.95-0.3 1.65 0.1 0.7 0.399 1.149 0.899 1.35 0.834 0.333 1.434 0.05 1.801-0.85 0.333-0.867 0.233-1.5-0.301-1.9l0.551-0.25c-0.067-0.267-0.483-0.384-1.25-0.35zm-5.15-8.9-1.3 3.5c-0.367 0.3-0.767 0.767-1.2 1.4-0.434 0.667-0.667 1.183-0.7 1.55 0.834 0.133 2.084 0.133 3.75 0 0.033-0.733-0.05-1.8-0.25-3.2-0.2-1.5-0.3-2.583-0.3-3.25zm-13.5 9.5c-0.5 0.434-0.767 0.833-0.8 1.2 0.566 0.166 1.05 0.1 1.45-0.2 0.399-0.3 0.533-0.717 0.399-1.25l-1.049 0.25zm7.95-0.05c-0.367 0.3-0.55 0.566-0.55 0.8 0 0.434 0.3 0.684 0.899 0.75 0.334 0.067 0.834 0.116 1.5 0.15v-1.9l-1.049-0.25c-0.233 0.033-0.5 0.183-0.8 0.45zm-9.8 2.75c0.167-0.5 0.25-0.9 0.25-1.2l-1.3 0.25c-0.3 0.167-0.483 0.467-0.55 0.9 0.467 0.2 1 0.216 1.6 0.05zm1.4-12.95c-0.033 0.167-0.05 0.5-0.05 1-0.033 0.434-0.1 0.767-0.2 1 0.767-0.033 1.867-0.134 3.3-0.3 0.2-1.5-0.05-3.066-0.75-4.7l-1.85 0.75c0.033 0.5-0.117 1.25-0.45 2.25zm8.65 2-0.75 0.75c-0.101 0.434-0.25 1-0.45 1.7 0 0.467 0.467 0.65 1.4 0.55 0.166-0.399 0.183-0.899 0.05-1.5-0.167-0.866-0.25-1.366-0.25-1.5zm-2.65 1.5-1.05 0.25c0 0.4 0.033 1.05 0.1 1.95 0 0.833-0.1 1.483-0.3 1.95 0.3 0.1 0.884 0.116 1.75 0.05 0.101-0.5 0.033-1.2-0.2-2.1-0.234-0.933-0.333-1.633-0.3-2.1zm0.55-11.8c-0.833 0.2-1.183 0.617-1.05 1.25 0.066 0.4 0.233 0.633 0.5 0.7 0.066 0.033 0.434 0.066 1.101 0.1 0.699 0 1.233-0.1 1.6-0.3 0.5-0.267 0.483-0.684-0.05-1.25l-2.101-0.5zm17.25 4-0.8 1.8c0.134 0.434 0.05 1-0.25 1.7-0.133 0.4-0.366 0.916-0.7 1.55-0.033 0.101-0.483 0.95-1.35 2.55-0.566 1.101-0.934 2-1.1 2.7 0.366-0.033 1.25 0.033 2.649 0.2 0.7 0.066 1.084 0.083 1.15 0.05 0.133-0.066 0.267-0.333 0.399-0.8 0.167-0.6 0.217-1.533 0.15-2.8-0.1-1.333-0.15-2.267-0.15-2.8v-4.15zm-8.75 1.3c0.534-0.066 1.467 0 2.801 0.2 1.233 0.133 2.166 0.133 2.8 0l-0.05-1.7c0-0.6-0.084-1.4-0.25-2.4-0.167-1.167-0.267-1.966-0.301-2.4l-0.5 1.25c-2.666 2.934-4.166 4.617-4.5 5.05zm15.55 15.45c-0.767 0.467-0.967 1.066-0.601 1.8-1.333 0.167-1.333 0.866 0 2.101 1.334 1.266 2.184 1.316 2.55 0.149l-0.3-3.5c-0.365-0.8-0.915-0.984-1.649-0.55zm1.95-18.7c0.134 1.033 0.2 2.2 0.2 3.5l-0.05 6.8-0.95 0.7c-0.166-1.233-0.767-1.75-1.8-1.55-0.6 0.1-0.967 0.45-1.1 1.05-0.067 0.3-0.067 0.866 0 1.7-0.801-1.033-1.334-1.017-1.601 0.05-0.247 0.991-0.122 1.767 0.375 2.325-0.201-0.159-0.492-0.185-0.875-0.075-0.6 1.934 1.4 2.851 6 2.75 0 4.134 0.15 7.417 0.45 9.851l0.15 0.949c-1.101 0.134-2.15 0.117-3.15-0.05-1.267-0.2-2.083-0.616-2.45-1.25-0.2-0.333-0.35-0.866-0.45-1.6-0.066-0.8-0.183-1.351-0.35-1.65-0.533-1.167-1.533-2.033-3-2.6-1.467-0.601-2.816-0.65-4.05-0.15-0.233 0.101-0.983 0.517-2.25 1.25-0.9 0.467-1.717 0.717-2.45 0.75-1.967 0-3.066-0.017-3.3-0.05 0.033-0.267-0.4-0.6-1.3-1-1-0.367-1.617-0.6-1.851-0.7-0.666-0.3-1.583-0.417-2.75-0.35-1.333 0.167-2.283 0.267-2.85 0.3-0.634 0.066-1.084 0.133-1.351 0.2-0.366 0.1-0.75 0.316-1.149 0.649-0.067 0.066-0.617 0.851-1.65 2.351-0.5 0.733-1.417 1.017-2.75 0.85-0.533-0.066-1.116-0.35-1.75-0.85-0.633-0.567-1.183-0.867-1.65-0.9-0.667-0.066-1.683-0.066-3.05 0-1.367 0.101-2.367 0.101-3 0-0.8-0.1-1.267-0.399-1.4-0.899-0.034-0.101-0.05-0.717-0.05-1.851v-1.45c0.067-0.5 0.233-0.934 0.5-1.3 0.467-0.566 0.983-0.95 1.55-1.149 0.333-0.134 0.966-0.268 1.9-0.4 0.133-0.867 0.283-1.4 0.45-1.6 0.233-0.301 0.817-0.518 1.75-0.65 1.034-0.167 1.6-0.283 1.7-0.35 0.4-0.2 0.617-0.65 0.65-1.351 0-0.833-0.033-1.316-0.1-1.45-0.133-0.333-0.366-0.583-0.7-0.75-0.467-0.166-0.817-0.333-1.05-0.5-0.466-0.3-0.716-0.649-0.75-1.05-0.033-0.433 0.2-0.833 0.7-1.2 0.3-0.232 0.867-0.383 1.7-0.449 0.7-0.101 1.233-0.367 1.6-0.801 0.267-0.333 0.417-0.75 0.45-1.25v-1.3c0-0.667 0.033-1.167 0.1-1.5 0.1-0.4 0.333-0.833 0.7-1.3 0.167-0.233 0.833-0.934 2-2.1 7.233-0.867 12.9-2.017 17-3.45 1.9-0.667 3.8-1.034 5.7-1.101 2-0.066 3.833 0.2 5.5 0.8l0.6 2.85 0.101-2.55c1.7 0.8 3.1 1.933 4.2 3.399l0.951 1.452zm-3.2 2c0.333-0.1 0.517-0.3 0.55-0.6v-0.9l0.75-0.05c0.066-0.767-0.017-1.283-0.25-1.55s-0.767-0.417-1.601-0.45l-1.3-0.75h-0.2c-0.6 0-1.033 0.167-1.3 0.5-0.267 0.367-0.25 0.816 0.05 1.35-1.066 0.334-1.149 0.851-0.25 1.55 0.867 0.7 1.684 0.75 2.45 0.15-0.033 0.3 0.066 0.533 0.3 0.7 0.233 0.133 0.5 0.15 0.8 0.05z" fill="#8aa652" fill-rule="evenodd"/>
		<path d="m87.35 91.25c-1.433 0.166-2.533 0.267-3.3 0.3 0.1-0.233 0.167-0.566 0.2-1 0-0.5 0.017-0.833 0.05-1 0.333-1 0.483-1.75 0.45-2.25l1.85-0.75c0.7 1.634 0.95 3.2 0.75 4.7z" fill="#6d8c3f" fill-rule="evenodd"/>
		<path d="m91.4 83.3c-0.667-0.033-1.034-0.066-1.101-0.1-0.267-0.067-0.434-0.3-0.5-0.7-0.133-0.633 0.217-1.05 1.05-1.25l2.101 0.5c0.533 0.566 0.55 0.983 0.05 1.25-0.366 0.2-0.9 0.3-1.6 0.3z" fill="#6d8c3f" fill-rule="evenodd"/>
		<path d="m104.95 86.75c-0.634 0.133-1.566 0.133-2.8 0-1.334-0.2-2.267-0.267-2.801-0.2 0.334-0.433 1.834-2.116 4.5-5.05l0.5-1.25c0.034 0.434 0.134 1.233 0.301 2.4 0.166 1 0.25 1.8 0.25 2.4l0.05 1.7z" fill="#6d8c3f" fill-rule="evenodd"/>
		<path d="m107.3 87.05 0.8-1.8v4.15c0 0.533 0.051 1.467 0.15 2.8 0.066 1.267 0.017 2.2-0.15 2.8-0.133 0.467-0.267 0.733-0.399 0.8-0.066 0.033-0.45 0.017-1.15-0.05-1.399-0.167-2.283-0.233-2.649-0.2 0.166-0.7 0.533-1.6 1.1-2.7 0.866-1.6 1.316-2.449 1.35-2.55 0.334-0.634 0.567-1.149 0.7-1.55 0.298-0.7 0.382-1.267 0.248-1.7z" fill="#6d8c3f" fill-rule="evenodd"/>
		<path d="m98.8 96.75c-1.666 0.133-2.916 0.133-3.75 0 0.033-0.367 0.267-0.883 0.7-1.55 0.434-0.634 0.833-1.101 1.2-1.4l1.3-3.5c0 0.667 0.1 1.75 0.3 3.25 0.2 1.4 0.283 2.467 0.25 3.2z" fill="#6d8c3f" fill-rule="evenodd"/>
		<path d="m92.15 100.55c0-0.233 0.183-0.5 0.55-0.8 0.3-0.267 0.566-0.417 0.8-0.45l1.05 0.25v1.9c-0.666-0.034-1.166-0.083-1.5-0.15-0.6-0.067-0.9-0.317-0.9-0.75z" fill="#6d8c3f" fill-rule="evenodd"/>
		<path d="m90.8 97.25c-0.866 0.066-1.45 0.05-1.75-0.05 0.2-0.467 0.3-1.117 0.3-1.95-0.066-0.9-0.1-1.55-0.1-1.95l1.05-0.25c-0.033 0.467 0.066 1.167 0.3 2.101 0.233 0.899 0.3 1.599 0.2 2.099z" fill="#6d8c3f" fill-rule="evenodd"/>
		<path d="m93.15 94.55c-0.934 0.101-1.4-0.083-1.4-0.55 0.2-0.7 0.35-1.267 0.45-1.7l0.75-0.75c0 0.134 0.083 0.634 0.25 1.5 0.133 0.6 0.116 1.1-0.05 1.5z" fill="#6d8c3f" fill-rule="evenodd"/>
		<path d="m114.7 82.2c0.233 0.267 0.316 0.783 0.25 1.55l-0.75 0.05v0.9c-0.033 0.3-0.217 0.5-0.55 0.6-0.301 0.1-0.567 0.083-0.801-0.05-0.233-0.167-0.333-0.4-0.3-0.7-0.767 0.6-1.583 0.55-2.45-0.15-0.899-0.7-0.816-1.216 0.25-1.55-0.3-0.533-0.316-0.983-0.05-1.35 0.267-0.333 0.7-0.5 1.3-0.5h0.2l1.3 0.75c0.835 0.033 1.368 0.184 1.601 0.45z" fill="#6d8c3f" fill-rule="evenodd"/>
		<path d="m114.25 92.75c1.033-0.2 1.634 0.316 1.8 1.55l0.95-0.7 0.05 6.95c-4.6 0.101-6.6-0.816-6-2.75 0.383-0.109 0.674-0.084 0.875 0.075-0.497-0.559-0.622-1.334-0.375-2.325 0.267-1.066 0.8-1.083 1.601-0.05-0.067-0.834-0.067-1.4 0-1.7 0.132-0.6 0.499-0.95 1.099-1.05z" fill="#6d8c3f" fill-rule="evenodd"/>
		<path d="m116.85 106.05c-0.366 1.167-1.216 1.116-2.55-0.149-1.333-1.234-1.333-1.934 0-2.101-0.366-0.733-0.166-1.333 0.601-1.8 0.733-0.434 1.283-0.25 1.649 0.55l0.3 3.5z" fill="#6d8c3f" fill-rule="evenodd"/>
		<path d="m102 99.55c0.167-0.233 0.634-0.35 1.4-0.35 0.767-0.034 1.183 0.083 1.25 0.35l-0.55 0.25c0.534 0.4 0.634 1.033 0.301 1.9-0.367 0.899-0.967 1.183-1.801 0.85-0.5-0.2-0.8-0.649-0.899-1.35-0.135-0.7-0.034-1.25 0.299-1.65z" fill="#6d8c3f" fill-rule="evenodd"/>
		<path d="m85.8 99.55c0.134 0.533 0 0.95-0.399 1.25-0.4 0.3-0.884 0.366-1.45 0.2 0.033-0.367 0.3-0.767 0.8-1.2l1.049-0.25z" fill="#6d8c3f" fill-rule="evenodd"/>
		<path d="m81.3 102.45c0.067-0.434 0.25-0.733 0.55-0.9l1.3-0.25c0 0.3-0.083 0.7-0.25 1.2-0.6 0.166-1.133 0.15-1.6-0.05z" fill="#6d8c3f" fill-rule="evenodd"/>
			<use transform="matrix(1 0 0 -1 102.78 11.273)" y="-43.798" width="64.050003" height="43.798" enable-background="new" xlink:href="#q"/>
			<linearGradient id="u" x1="-117.36" x2="-64.437" y1="-98.499" y2="-98.499" gradientTransform="scale(-1)" gradientUnits="userSpaceOnUse">
			<stop stop-color="#FFF9F9" stop-opacity=".4196" offset="0"/>
			<stop stop-opacity=".2275" offset="1"/>
		</linearGradient>
		<path d="m115.9 81.85 0.949 1.45c0.134 1.033 0.2 2.2 0.2 3.5 0 1.934-0.017 5.866-0.05 11.8 0.033 5.467 0.2 9.4 0.5 11.801l0.6 5.05c-1.433-1.733-3.55-2.934-6.35-3.601-2.5-0.533-5.533-0.5-9.1 0.101v-0.15l-0.101 0.2c-2.767 0.5-5.934 1.35-9.5 2.55-3.733 1.333-6.25 2.233-7.55 2.7-2.5 0.9-5.183 1.617-8.05 2.15l-0.2-0.351-0.05 0.4c-5.833 1.066-10.434 1.233-13.8 0.5-2.066-0.467-3.783-1.034-5.15-1.7-1.667-0.834-3.066-1.883-4.2-3.15l0.7-17.5c0.267-5.232 0.4-12.233 0.4-21l3.1 1.65 1.4 1.05c1.267 0.767 2.75 1.417 4.45 1.95l0.3 0.85 0.05-0.75c1.9 0.567 4 0.917 6.3 1.05 1.667 0.1 3.467 0.1 5.4 0l0.4 1.9c0.034-0.433 0.15-1.066 0.35-1.9 4.034-0.233 8.317-0.733 12.85-1.5 4.3-0.767 7.65-1.583 10.05-2.45 1.9-0.667 3.8-1.034 5.7-1.101 2-0.066 3.833 0.2 5.5 0.8l0.6 2.9 0.101-2.6c1.701 0.801 3.101 1.934 4.201 3.401z" fill="url(#u)" fill-rule="evenodd"/>
		<path d="m78.55 108.65c-0.1 0.133-0.316 0.183-0.65 0.149-0.333-0.033-0.533-0.1-0.6-0.2 0.5-0.165 0.917-0.149 1.25 0.051z" fill="#301f0a" fill-rule="evenodd"/>
		<path d="m73.9 105.6c0.133 0.233 0.184 0.417 0.15 0.551 0.134 0 0.15-0.051 0.05-0.15 0.2 0.166 0.35 0.633 0.45 1.4 0.134 0.866 0.217 1.35 0.25 1.449 0.634 0.2 1.367 0.351 2.2 0.45 0.033-0.033 0.05-0.149 0.05-0.35-0.033-0.233-0.017-0.367 0.05-0.4 0.133 0.067 0.183 0.233 0.15 0.5-0.033 0.134-0.066 0.3-0.1 0.5 0.067-0.066 0.217-0.1 0.45-0.1 0.267 0 0.483 0.033 0.65 0.1-0.1 0.167-0.417 0.184-0.95 0.05-0.167 0.101-0.233 0.316-0.2 0.65 0.066 0.1 0.3 0.15 0.7 0.15 0.367 0.033 0.567 0.066 0.6 0.1 0 0.1-0.216 0.133-0.65 0.1-0.433-0.033-0.683-0.05-0.75-0.05v-0.85l-2.25 0.3c-1.1 3.833-3.55 5.934-7.35 6.3-0.2 0.366-0.383 1.05-0.55 2.05 0.033 0.033 0.15 0.066 0.35 0.101 0.133 0.033 0.183 0.083 0.15 0.149l-0.65-0.05c-0.3 0-0.467 0.134-0.5 0.4 0.033 0.133 0.15 0.267 0.35 0.399 0.067-0.033 0.067-0.066 0-0.1-0.1-0.033-0.167-0.066-0.2-0.1 0.367 0 0.633 0.149 0.8 0.449h-0.05c0.133 0.101 0.217 0.217 0.25 0.351 0.033 0.333-0.15 0.5-0.55 0.5-0.366 0.033-0.6-0.067-0.7-0.3 0.033 0 0.233 0.033 0.6 0.1 0.233 0.033 0.383-0.033 0.45-0.2 0.034-0.134-0.216-0.399-0.75-0.8-0.466-0.367-0.45-0.667 0.05-0.9 0-0.166-0.083-0.866-0.25-2.1-3.7-0.467-5.934-2.75-6.7-6.85l-2.1-0.4c-0.1 0.133-0.167 0.383-0.2 0.75h-0.35c-0.033-0.3-0.117-0.467-0.25-0.5-0.1 0.066-0.15 0.233-0.15 0.5h-0.4c-0.267-0.8-0.433-1.434-0.5-1.9 0.2 0.434 0.417 0.983 0.65 1.65 0.1-0.1 0.15-0.3 0.15-0.6h0.4c0.133 0.266 0.2 0.482 0.2 0.649 0.133-0.134 0.216-0.433 0.25-0.899 0.033-0.5 0.117-0.817 0.25-0.95 0.066 0.133 0.05 0.417-0.05 0.85 0.4 0.067 1.167-0.033 2.3-0.3 0.767-4 3.133-6.133 7.1-6.4 0.367-1.1 0.567-1.717 0.6-1.85 0.167-0.8 0.05-1.4-0.35-1.8-0.167 0.267-0.233 0.25-0.2-0.05-0.167 0.199-0.2 0.533-0.1 1 0.067 0.433 0.05 0.683-0.05 0.75 0-0.934-0.017-1.617-0.05-2.051 0.333 0.066 0.617 0.301 0.85 0.7 0.3 0.533 0.5 0.851 0.6 0.95 0.066-0.1 0.083-0.383 0.05-0.85-0.033-0.4 0.017-0.65 0.15-0.75 0.067 0.333 0.067 1 0 2-0.167-0.033-0.3-0.117-0.4-0.25-0.1-0.167-0.183-0.283-0.25-0.351 0 0.267 0.067 0.717 0.2 1.351 0.133 0.6 0.2 1.033 0.2 1.3 0.233 0.066 0.684 0.167 1.35 0.3l-0.05 0.15c0.167 0.033 0.3 0.033 0.4 0-0.066 0.066-0.066 0.083 0 0.05 0.167-0.034 0.283-0.017 0.35 0.05-6e-3 0.019-0.015 0.035-0.025 0.05h0.175l-0.1 0.101c0.434 0.066 0.8 0.217 1.1 0.449 1.467 0.733 2.283 1.467 2.45 2.2 0.033-0.065 0.1 0.035 0.2 0.302zm-14 2.65c1.667-0.167 3.067-0.383 4.2-0.65-0.867-1.666-1.583-2.833-2.15-3.5-1.067 1.066-1.75 2.45-2.05 4.15zm8.5-3.9c0.034 0.467 0.133 1.101 0.3 1.9 0.9-0.4 2.167-1.084 3.8-2.05-0.433-0.5-1.083-0.917-1.95-1.25l-2.4-0.851c0 1.167 0.05 1.834 0.15 2-0.033 0.233-0.017 0.4 0.05 0.5 0-0.132 0.017-0.216 0.05-0.249zm4.35-0.1c-0.033 0.1-0.033 0.184 0 0.25-0.667 0.833-1.333 1.867-2 3.1-0.033 0.066-0.1 0.134-0.2 0.2-0.1 0.033-0.116 0.083-0.05 0.15 2.3 0.5 3.667 0.75 4.1 0.75-0.2-1.967-0.817-3.434-1.85-4.4 0.067-0.033 0.133-0.017 0.2 0.05 0.066 0.066 0.1 0.066 0.1 0-0.033 0-0.083-0.033-0.15-0.1-0.033-0.066-0.083-0.066-0.15 0zm-5.4-3.35-1.6 6.649c0.3 0.267 0.75 0.684 1.35 1.25l0.35-7.75c0-0.032-0.033-0.082-0.1-0.149zm-0.7 1.2c-2.167 0.2-3.65 0.768-4.45 1.7 1.6 1 2.833 1.717 3.7 2.15 0.267-0.9 0.45-1.583 0.55-2.05 0.233-0.867 0.3-1.533 0.2-2v0.2zm0.15 7.15c-3.966-0.233-6.7-0.316-8.2-0.25l6.9 1.5c0.6-0.533 1.033-0.95 1.3-1.25zm0.4 0.35c-0.233 3.467-0.317 5.95-0.25 7.45l1.6-6.35c-0.533-0.601-0.983-1.034-1.35-1.3v0.2zm3.25 0.95c-0.267 0-0.35 0.101-0.25 0.3l0.05-0.1c0.367 0.8 0.967 1.967 1.8 3.5 1.367-1.3 2.134-2.7 2.3-4.2l-2.05 0.25c-0.967 0.067-1.583 0.15-1.85 0.25zm-1.45-2.95c0-0.566-0.083-0.916-0.25-1.05 0 0.033 0.017 0.233 0.05 0.601 0.033 0.232 0.1 0.382 0.2 0.449zm-1.6 1.45c0.8 0 2.217 0.05 4.25 0.15 1.767 0.1 3.133 0.133 4.1 0.1l-6.9-1.45-1.45 1.2zm-7.7 0.5c0.167 1.467 0.8 2.851 1.9 4.15 1.066-1.467 1.816-2.601 2.25-3.4-1.867-0.467-3.25-0.717-4.15-0.75zm8.65 2.65-0.95 3.9c2.167-0.3 3.667-0.883 4.5-1.75-1.5-1.034-2.683-1.75-3.55-2.15zm-3.8 3.5c0.634 0.233 1.167 0.316 1.6 0.25l-0.55-3.85c-0.533 0.2-1.184 0.5-1.95 0.9-1.033 0.533-1.667 0.85-1.9 0.95l1.075 0.875c-0.095-0.054-0.17-0.062-0.225-0.025 0.2 0.2 0.45 0.351 0.75 0.45 0.167 0.066 0.567 0.217 1.2 0.45z" fill="#301f0a" fill-rule="evenodd"/>
		<path d="m60.3 112.55c-1.3 0.267-2.383 0.817-3.25 1.65-1.1 1.066-1.833 2.399-2.2 4-0.367 1.667-0.117 2.899 0.75 3.7 0.994 0.938 1.627 1.462 1.9 1.574l-2.5-0.52c-0.367-0.2-0.7-0.55-1-1.05-0.633-1-0.783-2.268-0.45-3.801 0.7-3.232 2.284-5.267 4.75-6.1 1.233-0.434 2.4-0.533 3.5-0.3l0.15 0.7c-0.467-0.032-1.016 0.017-1.65 0.151z" fill="#b6a081" fill-rule="evenodd"/>
			<use transform="matrix(1 0 0 -1 163.13 17.273)" x="-0.025" y="-38.150002" width="4.2750001" height="38.150002" enable-background="new" opacity=".4102" xlink:href="#o"/>
			<linearGradient id="v" x1="-60.275" x2="-53.725" y1="-94.608" y2="-94.608" gradientTransform="scale(-1)" gradientUnits="userSpaceOnUse">
			<stop stop-color="#F6F0D9" offset="0"/>
			<stop stop-color="#D7C9A1" offset="1"/>
		</linearGradient>
		<path d="m56.85 71.7c0.933-0.867 2.1-1.417 3.5-1.65 0.7-0.1 1.316-0.116 1.85-0.05l-0.55 4.4c-0.367 3.534-0.566 6.75-0.6 9.65-0.066 9.267 0.017 16.616 0.25 22.05 0.1 2.733 0.217 4.533 0.35 5.4-0.566-0.1-1.25-0.084-2.05 0.05-1.533 0.233-2.783 0.95-3.75 2.15s-1.667 2.483-2.1 3.85c-0.2 0.7-0.316 1.267-0.35 1.7-0.1 0.2-0.083-3.867 0.05-12.2 0-2.033 0.433-13.134 1.3-33.3-0.1 0.033 0.6-0.65 2.1-2.05z" fill="url(#v)" fill-rule="evenodd"/>
		<path d="m62.05 70.35 0.15-0.35l0.35 0.7-0.4 3c-0.3 2.7-0.5 5.866-0.6 9.5-0.2 8.733-0.066 18.466 0.4 29.2l-0.5-0.95c-0.333-4.03-0.55-8.78-0.65-14.25-0.233-10.867 0.183-19.817 1.25-26.85z" fill="#fef6de" fill-rule="evenodd"/>
</g>
</svg>
