<svg xmlns="http://www.w3.org/2000/svg" xmlns:xlink="http://www.w3.org/1999/xlink" viewBox="0 0 95.28 95.28"><defs><style>.cls-1,.cls-10,.cls-11,.cls-12,.cls-4,.cls-6{fill:none;}.cls-2,.cls-9{fill:#212446;}.cls-3{fill:#fff;}.cls-12,.cls-4,.cls-6,.cls-9{stroke:#3ab14a;}.cls-10,.cls-11,.cls-12,.cls-4,.cls-6,.cls-9{stroke-miterlimit:10;}.cls-11,.cls-4,.cls-9{stroke-width:2.52px;}.cls-5{fill:#3ab14a;}.cls-6{stroke-width:2.73px;}.cls-7{fill:#222446;}.cls-8{clip-path:url(#clip-path);}.cls-10{stroke:#222446;}.cls-10,.cls-12{stroke-width:2.36px;}.cls-11{stroke:#fff;}</style><clipPath id="clip-path"><path class="cls-1" d="M42.21,11.39H53.29A22.46,22.46,0,0,1,75.74,33.85V51.14A5.91,5.91,0,0,1,69.83,57H25.66a5.91,5.91,0,0,1-5.91-5.91V33.85A22.46,22.46,0,0,1,42.21,11.39Z"/></clipPath></defs><title>Asset 1</title><g id="Layer_2" data-name="Layer 2"><g id="Layer_1-2" data-name="Layer 1"><path class="cls-2" d="M24.5,39.32H71a0,0,0,0,1,0,0v29A14.86,14.86,0,0,1,56.14,83.22H39.35A14.86,14.86,0,0,1,24.5,68.37v-29A0,0,0,0,1,24.5,39.32Z"/><path class="cls-3" d="M36.58,53.51H58.92a0,0,0,0,1,0,0v14a7.14,7.14,0,0,1-7.14,7.14H43.71a7.14,7.14,0,0,1-7.14-7.14v-14a0,0,0,0,1,0,0Z"/><path class="cls-4" d="M28.83,43.42H66.67a0,0,0,0,1,0,0V67A12.09,12.09,0,0,1,54.58,79.13H40.92A12.09,12.09,0,0,1,28.83,67V43.42A0,0,0,0,1,28.83,43.42Z"/><path class="cls-5" d="M31.06,57H24.5L34.74,70.16V60.73A3.68,3.68,0,0,0,31.06,57Z"/><path class="cls-5" d="M64.43,57H71L60.76,70.16V60.73A3.68,3.68,0,0,1,64.43,57Z"/><path class="cls-2" d="M42.21,11.39H53.29A22.46,22.46,0,0,1,75.74,33.85V51.14A5.91,5.91,0,0,1,69.83,57H25.66a5.91,5.91,0,0,1-5.91-5.91V33.85A22.46,22.46,0,0,1,42.21,11.39Z"/><path class="cls-3" d="M42.93,14.38h9.63A19.52,19.52,0,0,1,72.08,33.9v15a5.14,5.14,0,0,1-5.14,5.14H28.55a5.14,5.14,0,0,1-5.14-5.14v-15A19.52,19.52,0,0,1,42.93,14.38Z"/><path class="cls-6" d="M23.41,48.93v-15A19.52,19.52,0,0,1,42.93,14.38h9.63A19.52,19.52,0,0,1,72.08,33.9v15"/><path class="cls-2" d="M58.54,51.68h7.2a17.39,17.39,0,0,0,1.71-7.58H56.82A17.39,17.39,0,0,0,58.54,51.68Z"/><path class="cls-2" d="M29.5,51.68h7.2a17.38,17.38,0,0,0,1.71-7.58H27.78A17.38,17.38,0,0,0,29.5,51.68Z"/><path class="cls-5" d="M43.63,62.08l0-17.64h7.85l.41,17.68a2.44,2.44,0,0,1-2.42,2.71H46A2.43,2.43,0,0,1,43.63,62.08Z"/><path class="cls-2" d="M43.63,60.56l1.44-11a2.8,2.8,0,0,1,2.78-2.44h0a2.8,2.8,0,0,1,2.78,2.49l1.24,11a2.43,2.43,0,0,1-2.42,2.71H46A2.43,2.43,0,0,1,43.63,60.56Z"/><path class="cls-2" d="M68.34,44.19H27.16a6.09,6.09,0,0,1,6.09-6.09h29a6.09,6.09,0,0,1,6.09,6.09Z"/><path class="cls-5" d="M68.34,44.19H27.16a2.13,2.13,0,0,0,2.13,2.13H66.21a2.13,2.13,0,0,0,2.13-2.13Z"/><path class="cls-5" d="M39.47,67.87H56a2.84,2.84,0,0,1-2.84,2.84H42.31a2.84,2.84,0,0,1-2.84-2.84Z"/><ellipse class="cls-5" cx="23.41" cy="41.96" rx="1.93" ry="10.83"/><ellipse class="cls-5" cx="72.08" cy="41.96" rx="1.93" ry="10.83"/><ellipse class="cls-7" cx="72.08" cy="41.96" rx="0.78" ry="4.38"/><ellipse class="cls-7" cx="23.41" cy="41.96" rx="0.78" ry="4.38"/><g class="cls-8"><path class="cls-4" d="M50.18,45.26V29.11a13.92,13.92,0,0,1,5.69-11.22l7.91-5.8"/><path class="cls-4" d="M45.31,45.26V29.11a13.92,13.92,0,0,0-5.69-11.22l-7.91-5.8"/></g><circle class="cls-9" cx="47.75" cy="31.69" r="5.08"/><circle class="cls-3" cx="47.75" cy="31.69" r="3.23"/><circle class="cls-5" cx="47.75" cy="31.69" r="1.81"/><line class="cls-4" x1="47.75" y1="63.31" x2="47.75" y2="47.09"/><line class="cls-4" x1="34.74" y1="67.87" x2="61.43" y2="67.87"/><circle class="cls-10" cx="47.75" cy="47.31" r="41.99"/><circle class="cls-11" cx="47.75" cy="47.31" r="45.79"/><line class="cls-12" x1="89.74" y1="47.31" x2="79.68" y2="47.31"/><line class="cls-12" x1="5.76" y1="47.31" x2="15.81" y2="47.31"/><line class="cls-12" x1="47.75" y1="89.3" x2="47.75" y2="79.24"/><line class="cls-12" x1="47.75" y1="5.32" x2="47.75" y2="15.38"/><circle class="cls-3" cx="15.81" cy="47.31" r="1.99"/><circle class="cls-3" cx="79.68" cy="47.31" r="1.99"/><rect class="cls-3" x="87.68" y="45.26" width="7.6" height="4.76"/><rect class="cls-3" y="45.26" width="7.6" height="4.76"/><rect class="cls-3" x="43.84" y="89.1" width="7.6" height="4.76" transform="translate(139.12 43.84) rotate(90)"/><rect class="cls-3" x="43.84" y="1.42" width="7.6" height="4.76" transform="translate(51.44 -43.84) rotate(90)"/></g></g></svg>